<svg width="19" height="16" viewBox="0 0 19 16" fill="none" xmlns="http://www.w3.org/2000/svg">
<g id="Add channel">
<path id="Oval" d="M18.1518 13.5525C18.1518 6.06766 12.1927 2.51431e-05 4.84178 2.51431e-05C3.52255 2.51431e-05 2.22761 0.19589 0.987725 0.577251C0.284039 0.79369 -0.114092 1.54999 0.0984747 2.26649C0.311041 2.983 1.05381 3.38838 1.7575 3.17194C2.74842 2.86716 3.78404 2.71051 4.84178 2.71051C10.7225 2.71051 15.4898 7.56462 15.4898 13.5525C15.4898 14.301 16.0857 14.9077 16.8208 14.9077C17.5559 14.9077 18.1518 14.301 18.1518 13.5525Z" fill="#606060"/>
<ellipse id="Oval_2" cx="4.65165" cy="13.338" rx="2.71049" ry="2.662" fill="#606060"/>
<path id="Oval_3" d="M12.7721 13.6322C12.7721 9.1413 9.19662 5.50071 4.78607 5.50071C3.30443 5.50071 1.87908 5.91347 0.639238 6.68176C0.0112922 7.07088 -0.187959 7.90464 0.194198 8.54402C0.576355 9.18341 1.3952 9.38629 2.02315 8.99717C2.84888 8.48549 3.79606 8.2112 4.78607 8.2112C7.72644 8.2112 10.1101 10.6383 10.1101 13.6322C10.1101 14.3807 10.706 14.9874 11.4411 14.9874C12.1762 14.9874 12.7721 14.3807 12.7721 13.6322Z" fill="#606060"/>
</g>
</svg>
