<svg width="14" height="14" viewBox="0 0 14 14" fill="none" xmlns="http://www.w3.org/2000/svg">
<path d="M13.039 0.961081C11.7575 -0.320356 9.68003 -0.320356 8.39859 0.961054L5.65617 3.70347C4.33069 5.02901 4.4534 7.14104 5.65617 8.34387C5.85759 8.54528 6.08044 8.70951 6.31576 8.84439L6.81629 8.34387C7.14458 8.01552 7.02902 7.6317 7.02312 7.35473C6.95106 7.30365 6.88098 7.24845 6.81629 7.18375C6.19906 6.56658 6.1713 5.50854 6.81629 4.86355C6.91207 4.76777 9.50051 2.17933 9.55865 2.12119C10.1985 1.48138 11.239 1.48138 11.8788 2.12119C12.5187 2.76101 12.5187 3.80158 11.8788 4.44139L10.0661 6.25409C10.1186 6.54413 10.4332 7.23117 10.2713 8.36451C10.2792 8.35674 10.2887 8.35174 10.2966 8.34389L13.039 5.60148C14.3204 4.32004 14.3204 2.24252 13.039 0.961081Z" fill="#A5A5A5"/>
<path d="M8.55634 5.44389C8.35495 5.24247 8.13207 5.07825 7.89681 4.94336L7.39628 5.44389C7.06794 5.77218 7.18349 6.156 7.1894 6.43296C7.2615 6.48404 7.33158 6.53925 7.39628 6.60395C8.01351 7.22118 8.04126 8.27916 7.39628 8.92414C7.30028 9.02015 4.49743 11.823 4.44135 11.8791C3.80153 12.5189 2.76097 12.5189 2.12115 11.8791C1.48133 11.2393 1.48133 10.1987 2.12115 9.55887L4.14642 7.53361C4.094 7.24357 3.77938 6.55653 3.94123 5.42319C3.93333 5.43095 3.92381 5.43601 3.91594 5.44386L0.961037 8.39882C-0.320346 9.68025 -0.320346 11.7578 0.961037 13.0392C2.24247 14.3206 4.31997 14.3206 5.60141 13.0392L8.55634 10.0843C9.85724 8.78338 9.78615 6.67367 8.55634 5.44389Z" fill="#A5A5A5"/>
</svg>
