<svg width="20" height="16" viewBox="0 0 20 16" fill="none" xmlns="http://www.w3.org/2000/svg">
<path d="M1.94929 16H3.49458V8.26729C3.49881 8.23023 3.50556 8.19324 3.50556 8.15525C3.50556 4.81916 6.19828 2.1054 9.50763 2.1054C12.8166 2.1054 15.5093 4.81916 15.5093 8.15525C15.5093 8.20627 15.5168 8.25571 15.5244 8.30501V16H17.0699C18.1455 16 19.0182 15.0974 19.0182 13.9837V9.95115C19.0182 9.03275 18.4234 8.25901 17.6113 8.01555C17.5365 3.58365 13.9313 0 9.50796 0C5.08341 0 1.47765 3.58398 1.40367 8.01727C0.592676 8.26107 0 9.03414 0 9.95181V13.9837C0 15.0967 0.872668 16 1.94929 16Z" fill="#606060"/>
<path fill-rule="evenodd" clip-rule="evenodd" d="M10.4428 11.3937V13.5893C10.4428 13.962 10.0258 14.2637 9.50918 14.2637C8.99357 14.2637 8.57552 13.9617 8.57552 13.5893V11.3937H6.37994C6.00686 11.3937 5.70557 10.9757 5.70557 10.4601C5.70557 9.94445 6.00686 9.5264 6.37994 9.5264H8.57552V7.33075C8.57552 6.95766 8.99357 6.65637 9.50918 6.65637C10.0248 6.65637 10.4428 6.95766 10.4428 7.33075V9.5264H12.6385C13.0112 9.5264 13.3129 9.94348 13.3129 10.4601C13.3129 10.9757 13.0109 11.3937 12.6385 11.3937H10.4428Z" fill="#606060"/>
</svg>
