<svg width="13" height="13" viewBox="0 0 13 13" fill="none" xmlns="http://www.w3.org/2000/svg">
<path d="M6.50001 11.0834H2.37499C2.12199 11.0834 1.91667 10.878 1.91667 10.625V2.37501C1.91667 2.12201 2.12201 1.91669 2.37499 1.91669H6.50001C6.75347 1.91669 6.95833 1.71182 6.95833 1.45837C6.95833 1.20491 6.75347 1 6.50001 1H2.37499C1.61691 1 1 1.61693 1 2.37501V10.625C1 11.3831 1.61691 12 2.37499 12H6.50001C6.75347 12 6.95833 11.7951 6.95833 11.5417C6.95833 11.2882 6.75347 11.0834 6.50001 11.0834Z" fill="#E52321" stroke="#E52321" stroke-width="0.5"/>
<path d="M11.8999 6.17346L9.11325 3.42346C8.93358 3.24562 8.643 3.24792 8.46516 3.42805C8.28733 3.60817 8.28916 3.89829 8.46976 4.07613L10.4612 6.04145H5.12483C4.87137 6.04145 4.6665 6.24632 4.6665 6.49978C4.6665 6.75323 4.87137 6.95812 5.12483 6.95812H10.4612L8.46976 8.92344C8.28918 9.10128 8.2878 9.3914 8.46516 9.57153C8.55499 9.66228 8.67325 9.7081 8.7915 9.7081C8.90793 9.7081 9.02433 9.66411 9.11325 9.5761L11.8999 6.82609C11.987 6.73993 12.0365 6.62258 12.0365 6.49975C12.0365 6.37697 11.9875 6.26009 11.8999 6.17346Z" fill="#E52321" stroke="#E52321" stroke-width="0.5"/>
</svg>
