<svg width="26" height="26" viewBox="0 0 26 26" fill="none" xmlns="http://www.w3.org/2000/svg">
<circle cx="13" cy="13" r="13" fill="#C4C4C4"/>
<path d="M17.8613 8.14644C17.5604 7.84551 17.0742 7.84551 16.7733 8.14644L13 11.912L9.22678 8.13873C8.92585 7.83779 8.43972 7.83779 8.13879 8.13873C7.83785 8.43966 7.83785 8.92579 8.13879 9.22672L11.912 13L8.13879 16.7732C7.83785 17.0742 7.83785 17.5603 8.13879 17.8612C8.43972 18.1622 8.92585 18.1622 9.22678 17.8612L13 14.088L16.7733 17.8612C17.0742 18.1622 17.5604 18.1622 17.8613 17.8612C18.1622 17.5603 18.1622 17.0742 17.8613 16.7732L14.088 13L17.8613 9.22672C18.1545 8.9335 18.1545 8.43966 17.8613 8.14644V8.14644Z" fill="#606060"/>
</svg>
