<svg width="21" height="25" viewBox="0 0 21 25" fill="none" xmlns="http://www.w3.org/2000/svg">
<path d="M17.0545 5.35651C15.1645 3.42722 12.6627 2.38086 10.0155 2.40754C4.55153 2.46262 0.151897 7.12733 0.20913 12.8048C0.227413 14.6184 0.700609 16.3857 1.58239 17.9401L0.229989 23.2885L5.46974 21.8023C6.92437 22.6087 8.5581 23.0236 10.2187 23.0069L10.2232 23.0068C15.6827 22.9518 20.1806 18.2861 20.1233 12.6087C20.0956 9.85807 18.9446 7.2858 17.0545 5.35651V5.35651ZM10.2057 21.2721C8.72364 21.287 7.26866 20.8888 5.99747 20.1223L5.69651 19.9398L2.58915 20.82L3.38763 17.6529L3.18793 17.3302C2.34834 15.9748 1.89947 14.4067 1.88315 12.7879C1.8356 8.07061 5.49312 4.19272 10.0375 4.14691C12.2383 4.12473 14.3142 4.99447 15.884 6.59762C17.4538 8.20078 18.4307 10.3387 18.4493 12.6255C18.4969 17.3475 14.7457 21.2263 10.2057 21.2721V21.2721ZM14.6587 14.8162C14.4119 14.6888 13.1869 14.0795 12.9584 13.9983C12.7299 13.9125 12.5643 13.8724 12.4017 14.1338C12.2392 14.3953 11.7718 14.9752 11.6262 15.1529C11.4851 15.326 11.338 15.3507 11.0912 15.2233C9.6283 14.4819 8.66701 13.8978 7.68998 12.1959C7.43095 11.7439 7.94018 11.7712 8.40345 10.7831C8.48208 10.6107 8.4404 10.4626 8.3766 10.3334C8.31279 10.2042 7.80452 8.94286 7.59398 8.43006C7.38805 7.93114 7.1834 8.00278 7.03153 7.99504C6.88859 7.9872 6.72342 7.98886 6.55825 7.99053C6.39308 7.99219 6.12589 8.05983 5.90079 8.31724C5.67574 8.57929 5.04365 9.20727 5.05641 10.4736C5.06918 11.7399 5.96987 12.9555 6.09213 13.1259C6.21885 13.2962 7.86549 15.8774 10.3632 16.9702C11.9417 17.6594 12.5583 17.7135 13.3428 17.585C13.8197 17.5059 14.8008 16.9487 15 16.3436C15.1993 15.7385 15.1941 15.2237 15.1305 15.1176C15.0713 15.0022 14.9055 14.939 14.6587 14.8162Z" fill="#949494"/>
</svg>
