<svg width="22" height="25" viewBox="0 0 22 25" fill="none" xmlns="http://www.w3.org/2000/svg">
<path d="M19.1356 7.92975C19.1512 8.14057 19.1533 8.35157 19.1555 8.56253C19.2203 14.997 14.9132 22.4551 6.90438 22.5359C4.43701 22.5607 2.1369 21.7851 0.194877 20.4183C0.545898 20.4599 0.883086 20.4716 1.24714 20.4679C3.28301 20.4474 5.1494 19.66 6.63278 18.3339C4.71777 18.308 3.09918 16.9228 2.52693 14.9995C2.79706 15.042 3.06701 15.0694 3.35017 15.0665C3.74116 15.0626 4.13158 14.9984 4.49453 14.8893C2.49453 14.4573 0.978141 12.5134 0.954291 10.1476L0.953684 10.0873C1.53707 10.4431 2.21354 10.6624 2.92838 10.6853C1.74657 9.82307 0.963038 8.339 0.946024 6.65126C0.93691 5.74713 1.14424 4.91616 1.51449 4.18904C3.68804 7.12095 6.92989 9.01727 10.5454 9.19185C10.4743 8.83087 10.4301 8.45459 10.4263 8.07785C10.3992 5.39554 12.3187 3.19098 14.7322 3.16666C15.986 3.15402 17.1245 3.73029 17.9296 4.67162C18.9117 4.45074 19.8514 4.03434 20.6817 3.46837C20.3695 4.60184 19.6914 5.55812 18.7942 6.16994C19.6695 6.05568 20.5162 5.77581 21.2944 5.39124C20.711 6.3616 19.978 7.22797 19.1356 7.92975V7.92975Z" fill="#949494"/>
</svg>
