<svg width="21" height="25" viewBox="0 0 21 25" fill="none" xmlns="http://www.w3.org/2000/svg">
<path d="M18.6316 2.19744L2.91814 2.35584C2.34985 2.36157 1.8072 2.60164 1.40956 3.02323C1.01193 3.44482 0.791882 4.0134 0.797835 4.60389L0.962428 20.9312C0.96838 21.5217 1.19984 22.0857 1.60589 22.4992C2.01195 22.9127 2.55933 23.1418 3.12762 23.136L9.25454 23.0743L9.18332 16.0095L6.37097 16.0378L6.33744 12.7125L9.1498 12.6842L9.12425 10.1497C9.09519 7.26694 10.7308 5.65792 13.2606 5.63242C14.4722 5.6202 15.7413 5.83193 15.7413 5.83193L15.7699 8.66138L14.3739 8.67545C12.9986 8.68931 12.5785 9.58051 12.5877 10.4901L12.6094 12.6493L15.6798 12.6183L15.2223 15.9486L12.643 15.9746L12.7142 23.0394L18.8411 22.9776C19.4094 22.9719 19.9521 22.7318 20.3497 22.3102C20.7473 21.8887 20.9674 21.3201 20.9614 20.7296L20.7968 4.40228C20.7909 3.81179 20.5594 3.24776 20.1534 2.83427C19.7473 2.42078 19.1999 2.19171 18.6316 2.19744V2.19744Z" fill="#949494"/>
</svg>
