<svg width="22" height="26" viewBox="0 0 22 26" fill="none" xmlns="http://www.w3.org/2000/svg">
<path d="M19.9929 1.57795L1.77476 1.7616C0.939977 1.77002 0.268856 2.48483 0.277617 3.35392L0.466327 22.0737C0.475089 22.9428 1.16048 23.6439 1.99526 23.6355L20.2134 23.4518C21.0481 23.4434 21.724 22.7286 21.7152 21.8595L21.5265 3.13972C21.5178 2.27062 20.8276 1.56953 19.9929 1.57795ZM6.87283 20.4612L3.72344 20.4929L3.6182 10.054L6.77234 10.0222L6.87757 20.4611L6.87283 20.4612ZM5.17853 8.61241C4.16826 8.62259 3.34394 7.78613 3.3335 6.75103C3.32307 5.71592 4.13036 4.86302 5.14063 4.85283C6.14616 4.84269 6.97522 5.67911 6.98566 6.71421C6.99614 7.7542 6.1888 8.60222 5.17853 8.61241V8.61241ZM18.6783 20.3422L15.5289 20.3739L15.4777 15.296C15.4655 14.0852 15.4261 12.5279 13.8135 12.5441C12.1724 12.5607 11.9343 13.8815 11.948 15.2437L12.0001 20.4095L8.85069 20.4412L8.74546 10.0023L11.7668 9.97184L11.7812 11.3976L11.8238 11.3971C12.2377 10.5726 13.2582 9.69801 14.7903 9.68256C17.9776 9.65043 18.5923 11.8074 18.6206 14.6198L18.6783 20.3422V20.3422Z" fill="#949494"/>
</svg>
