<svg width="14" height="14" viewBox="0 0 14 14" fill="none" xmlns="http://www.w3.org/2000/svg">
<path d="M9.625 0H4.375C1.95913 0 0 1.95913 0 4.375V9.625C0 12.0409 1.95913 14 4.375 14H9.625C12.0409 14 14 12.0409 14 9.625V4.375C14 1.95913 12.0409 0 9.625 0ZM12.6875 9.625C12.6875 11.3137 11.3137 12.6875 9.625 12.6875H4.375C2.68625 12.6875 1.3125 11.3137 1.3125 9.625V4.375C1.3125 2.68625 2.68625 1.3125 4.375 1.3125H9.625C11.3137 1.3125 12.6875 2.68625 12.6875 4.375V9.625Z" fill="url(#paint0_linear)"/>
<path d="M7 3.5C5.06712 3.5 3.5 5.06712 3.5 7C3.5 8.93288 5.06712 10.5 7 10.5C8.93288 10.5 10.5 8.93288 10.5 7C10.5 5.06712 8.93288 3.5 7 3.5ZM7 9.1875C5.79425 9.1875 4.8125 8.20575 4.8125 7C4.8125 5.79338 5.79425 4.8125 7 4.8125C8.20575 4.8125 9.1875 5.79338 9.1875 7C9.1875 8.20575 8.20575 9.1875 7 9.1875Z" fill="url(#paint1_linear)"/>
<path d="M10.7623 3.70374C11.0198 3.70374 11.2286 3.49494 11.2286 3.23737C11.2286 2.9798 11.0198 2.771 10.7623 2.771C10.5047 2.771 10.2959 2.9798 10.2959 3.23737C10.2959 3.49494 10.5047 3.70374 10.7623 3.70374Z" fill="url(#paint2_linear)"/>
<defs>
<linearGradient id="paint0_linear" x1="1.28157" y1="12.7185" x2="12.7184" y2="1.28148" gradientUnits="userSpaceOnUse">
<stop stop-color="#FFC107"/>
<stop offset="0.507" stop-color="#F44336"/>
<stop offset="0.99" stop-color="#9C27B0"/>
</linearGradient>
<linearGradient id="paint1_linear" x1="4.52519" y1="9.47481" x2="9.47481" y2="4.52519" gradientUnits="userSpaceOnUse">
<stop stop-color="#FFC107"/>
<stop offset="0.507" stop-color="#F44336"/>
<stop offset="0.99" stop-color="#9C27B0"/>
</linearGradient>
<linearGradient id="paint2_linear" x1="10.4325" y1="3.5672" x2="11.092" y2="2.90762" gradientUnits="userSpaceOnUse">
<stop stop-color="#FFC107"/>
<stop offset="0.507" stop-color="#F44336"/>
<stop offset="0.99" stop-color="#9C27B0"/>
</linearGradient>
</defs>
</svg>
