<svg width="50" height="25" viewBox="0 0 50 25" fill="none" xmlns="http://www.w3.org/2000/svg">
<path d="M40.0734 14.3884H38.558C37.6607 14.3884 36.9321 13.6766 36.9321 12.7981V18.3566C36.9321 19.2351 37.6607 19.9469 38.558 19.9469H40.0734C40.9707 19.9469 41.6974 19.2351 41.6993 18.3585V12.8001C41.6974 13.6767 40.9707 14.3884 40.0734 14.3884Z" fill="#00AEDF"/>
<path d="M40.0734 4.9563H38.558C37.6607 4.9563 36.9321 5.66812 36.9321 6.54664V8.48341V12.7982C36.9321 13.6767 37.6607 14.3885 38.558 14.3885H40.0734C40.9707 14.3885 41.6974 13.6767 41.6993 12.8001V8.48341V6.54664C41.6993 5.66812 40.9707 4.9563 40.0734 4.9563Z" fill="#66429A"/>
<path d="M47.4067 9.9819H45.8707C44.9791 9.9819 44.2561 9.25882 44.2561 8.36727V5.41896C44.2561 4.5273 44.9791 3.80432 45.8707 3.80432H47.4067C48.2983 3.80432 49.0213 4.5274 49.0213 5.41896V8.36727C49.0213 9.25892 48.2983 9.9819 47.4067 9.9819Z" fill="#C21E8E"/>
<path d="M3.34685 9.9819H1.81092C0.91927 9.9819 0.196289 9.25882 0.196289 8.36727V5.41896C0.196289 4.5273 0.91927 3.80432 1.81092 3.80432H3.34685C4.2385 3.80432 4.96148 4.5274 4.96148 5.41896V8.36727C4.96148 9.25892 4.2384 9.9819 3.34685 9.9819Z" fill="#00AE4D"/>
<path d="M32.9236 0H31.0598C30.2582 0 29.6082 0.642496 29.6082 1.4348V8.02804C29.6082 7.23573 30.2582 6.59324 31.0598 6.59324H32.9236C33.7253 6.59324 34.3753 7.23573 34.3753 8.02804V1.4348C34.3753 0.642397 33.7253 0 32.9236 0Z" fill="#F57E20"/>
<path d="M32.9236 6.59314H31.0598C30.2582 6.59314 29.6082 7.23564 29.6082 8.02794V12.0375V23.4947C29.6082 24.287 30.2582 24.9295 31.0598 24.9295H32.9236C33.7253 24.9295 34.3753 24.2888 34.3753 23.4965V12.0393V8.02794C34.3753 7.23564 33.7253 6.59314 32.9236 6.59314Z" fill="#FFCB05"/>
<path d="M10.8582 0H8.99441C8.19273 0 7.54272 0.515103 7.54272 1.14822V8.04137C7.54272 7.40826 8.19273 6.89315 8.99441 6.89315H10.8582C11.6599 6.89315 12.3099 7.40638 12.3099 8.04137V1.14822C12.3099 0.513227 11.6599 0 10.8582 0Z" fill="#1B4178"/>
<path d="M10.8582 6.89307H8.99441C8.19273 6.89307 7.54272 7.40817 7.54272 8.04128V17.8903V18.7987C7.54272 19.4337 8.19273 19.9469 8.99441 19.9469H10.8582C11.6599 19.9469 12.3099 19.4337 12.3099 18.8006V17.8921V8.04128C12.3099 7.40639 11.6599 6.89307 10.8582 6.89307Z" fill="#0073BC"/>
<path d="M18.0321 15.5049H16.5168C15.6195 15.5049 14.8909 14.7931 14.8909 13.9146V18.3585C14.8909 19.237 15.6195 19.9488 16.5168 19.9488H18.0321C18.9294 19.9488 19.658 19.237 19.658 18.3585V13.9146C19.658 14.7931 18.9294 15.5049 18.0321 15.5049Z" fill="#00AE4D"/>
<path d="M18.0321 4.9563H16.5168C15.6177 4.9563 14.8909 5.66812 14.8909 6.54664V7.83045V13.9147C14.8909 14.7932 15.6195 15.505 16.5168 15.505H18.0321C18.9294 15.505 19.658 14.7932 19.658 13.9147V7.83045V6.54664C19.658 5.66812 18.9294 4.9563 18.0321 4.9563Z" fill="#7BC143"/>
<path d="M25.5745 18.2162H23.7107C22.909 18.2162 22.259 17.5737 22.259 16.7814V23.4967C22.259 24.289 22.909 24.9315 23.7107 24.9315H25.5745C26.3762 24.9315 27.0262 24.289 27.0262 23.4967V16.7814C27.0262 17.5737 26.3762 18.2162 25.5745 18.2162Z" fill="#ED1C24"/>
<path d="M25.5745 0H23.7107C22.909 0 22.259 0.642496 22.259 1.4348V3.89418V16.7812C22.259 17.5735 22.909 18.216 23.7107 18.216H25.5745C26.3762 18.216 27.0262 17.5735 27.0262 16.7812V3.89418V1.4348C27.0262 0.642397 26.3762 0 25.5745 0Z" fill="#E9477A"/>
</svg>
