<svg width="98" height="25" viewBox="0 0 98 25" fill="none" xmlns="http://www.w3.org/2000/svg">
<path d="M88.0716 14.3879H86.5562C85.659 14.3879 84.9304 13.6761 84.9304 12.7976V18.3559C84.9304 19.2344 85.659 19.9461 86.5562 19.9461H88.0716C88.9688 19.9461 89.6955 19.2344 89.6974 18.3577V12.7996C89.6955 13.6762 88.9688 14.3879 88.0716 14.3879Z" fill="#00AEDF"/>
<path d="M88.0721 4.95618H86.5567C85.6595 4.95618 84.9309 5.66797 84.9309 6.54645V8.48315V12.7977C84.9309 13.6762 85.6595 14.388 86.5567 14.388H88.0721C88.9693 14.388 89.696 13.6762 89.6979 12.7996V8.48315V6.54645C89.6979 5.66797 88.9693 4.95618 88.0721 4.95618Z" fill="#66429A"/>
<path d="M95.4058 9.98141H93.8699C92.9783 9.98141 92.2554 9.25836 92.2554 8.36684V5.41865C92.2554 4.52703 92.9783 3.80408 93.8699 3.80408H95.4058C96.2974 3.80408 97.0204 4.52713 97.0204 5.41865V8.36684C97.0204 9.25846 96.2974 9.98141 95.4058 9.98141Z" fill="#C21E8E"/>
<path d="M51.347 9.98141H49.8111C48.9195 9.98141 48.1965 9.25836 48.1965 8.36684V5.41865C48.1965 4.52703 48.9195 3.80408 49.8111 3.80408H51.347C52.2386 3.80408 52.9615 4.52713 52.9615 5.41865V8.36684C52.9615 9.25846 52.2385 9.98141 51.347 9.98141Z" fill="#00AE4D"/>
<path d="M80.9233 0H79.0595C78.2579 0 77.6079 0.64247 77.6079 1.43474V8.02771C77.6079 7.23544 78.2579 6.59297 79.0595 6.59297H80.9233C81.7249 6.59297 82.3749 7.23544 82.3749 8.02771V1.43474C82.3749 0.642371 81.7249 0 80.9233 0Z" fill="#F57E20"/>
<path d="M80.923 6.5929H79.0593C78.2576 6.5929 77.6077 7.23537 77.6077 8.02764V12.037V23.4937C77.6077 24.286 78.2576 24.9285 79.0593 24.9285H80.923C81.7247 24.9285 82.3746 24.2879 82.3746 23.4956V12.0389V8.02764C82.3746 7.23537 81.7247 6.5929 80.923 6.5929Z" fill="#FFCB05"/>
<path d="M58.8588 0H56.9951C56.1934 0 55.5435 0.515082 55.5435 1.14817V8.04105C55.5435 7.40796 56.1934 6.89287 56.9951 6.89287H58.8588C59.6605 6.89287 60.3104 7.40608 60.3104 8.04105V1.14817C60.3104 0.513206 59.6605 0 58.8588 0Z" fill="#1B4178"/>
<path d="M58.8583 6.89276H56.9946C56.1929 6.89276 55.543 7.40784 55.543 8.04093V17.8895V18.7979C55.543 19.4329 56.1929 19.9461 56.9946 19.9461H58.8583C59.66 19.9461 60.3099 19.4329 60.3099 18.7998V17.8914V8.04093C60.3099 7.40607 59.66 6.89276 58.8583 6.89276Z" fill="#0073BC"/>
<path d="M66.032 15.5044H64.5167C63.6194 15.5044 62.8909 14.7926 62.8909 13.9141V18.3579C62.8909 19.2364 63.6194 19.9482 64.5167 19.9482H66.032C66.9293 19.9482 67.6578 19.2364 67.6578 18.3579V13.9141C67.6578 14.7926 66.9293 15.5044 66.032 15.5044Z" fill="#00AE4D"/>
<path d="M66.0325 4.95618H64.5172C63.6182 4.95618 62.8914 5.66797 62.8914 6.54645V7.83021V13.9142C62.8914 14.7927 63.6199 15.5045 64.5172 15.5045H66.0325C66.9298 15.5045 67.6583 14.7927 67.6583 13.9142V7.83021V6.54645C67.6583 5.66797 66.9298 4.95618 66.0325 4.95618Z" fill="#7BC143"/>
<path d="M73.5551 18.2154H71.6914C70.8897 18.2154 70.2397 17.5729 70.2397 16.7806V23.4957C70.2397 24.2879 70.8897 24.9304 71.6914 24.9304H73.5551C74.3567 24.9304 75.0067 24.2879 75.0067 23.4957V16.7806C75.0067 17.5729 74.3567 18.2154 73.5551 18.2154Z" fill="#ED1C24"/>
<path d="M73.5548 0H71.6911C70.8895 0 70.2395 0.64247 70.2395 1.43474V3.89402V16.7806C70.2395 17.5728 70.8895 18.2153 71.6911 18.2153H73.5548C74.3565 18.2153 75.0065 17.5728 75.0065 16.7806V3.89402V1.43474C75.0065 0.642371 74.3565 0 73.5548 0Z" fill="#E9477A"/>
<path fill-rule="evenodd" clip-rule="evenodd" d="M1.23813 17.1301H0V17.1302H0.00296251V20.2487H0.549348V19.246H1.17414C1.34854 19.246 1.51128 19.2228 1.66533 19.1763C1.81938 19.1298 1.95309 19.0629 2.06645 18.9728C2.17982 18.8857 2.26988 18.7752 2.33673 18.6415C2.40358 18.5078 2.43558 18.3538 2.43558 18.1794V18.1707C2.43558 18.0137 2.40645 17.8713 2.35125 17.7434C2.29605 17.6184 2.21764 17.508 2.11296 17.415C2.00839 17.3219 1.88337 17.2521 1.73514 17.2027C1.58692 17.1533 1.42122 17.1301 1.23813 17.1301ZM1.68916 18.5956C1.56711 18.7001 1.40141 18.7525 1.19215 18.7525V18.7554H0.546919V17.6277H1.19215C1.39844 17.6277 1.56415 17.6742 1.6862 17.7673C1.81122 17.8603 1.87225 17.9997 1.87225 18.1858V18.1944C1.87225 18.3573 1.81122 18.4909 1.68916 18.5956Z" fill="#313131"/>
<path fill-rule="evenodd" clip-rule="evenodd" d="M6.17259 20.1242C6.37315 20.2114 6.59405 20.2521 6.83816 20.2521C7.07941 20.2521 7.30032 20.2086 7.50374 20.1242C7.70421 20.0399 7.8786 19.9237 8.02396 19.7754C8.16932 19.6301 8.28269 19.4586 8.36406 19.2639C8.44543 19.0692 8.48611 18.8629 8.48611 18.642V18.6333C8.48611 18.4125 8.44543 18.2061 8.36406 18.0114C8.28269 17.8166 8.17228 17.6452 8.02692 17.4998C7.88156 17.3546 7.71013 17.2383 7.50957 17.154C7.30901 17.0697 7.0881 17.0261 6.84399 17.0261C6.59988 17.0261 6.37898 17.0668 6.17841 17.154C5.97795 17.2383 5.80642 17.3546 5.6582 17.5028C5.51284 17.6482 5.39947 17.8197 5.3181 18.0143C5.23673 18.209 5.19604 18.4153 5.19604 18.6362V18.6449C5.19604 18.8657 5.23673 19.0721 5.3181 19.2669C5.39947 19.4645 5.51284 19.633 5.65523 19.7784C5.80059 19.9237 5.97203 20.04 6.17259 20.1242ZM7.27376 19.6591C7.14302 19.7173 7.00062 19.7463 6.84657 19.7463C6.68956 19.7463 6.54716 19.7144 6.41641 19.6561C6.28567 19.5981 6.1723 19.5167 6.07928 19.4178C5.98635 19.3191 5.91367 19.2028 5.86134 19.0662C5.809 18.9296 5.78283 18.7871 5.78283 18.636V18.6273C5.78283 18.4763 5.809 18.3339 5.86134 18.2002C5.91357 18.0664 5.98626 17.9502 6.07928 17.8514C6.1723 17.7525 6.2828 17.6741 6.41355 17.6159C6.54429 17.5578 6.68669 17.5287 6.84074 17.5287C6.99766 17.5287 7.14015 17.5606 7.2709 17.6188C7.40164 17.6769 7.51501 17.7582 7.60803 17.8571C7.70096 17.9558 7.77364 18.0722 7.82597 18.2087C7.87831 18.3453 7.90448 18.4878 7.90448 18.6389V18.6476C7.90448 18.7988 7.87831 18.9412 7.82597 19.0749C7.77374 19.2086 7.70106 19.3248 7.60803 19.4237C7.51501 19.5225 7.40451 19.6009 7.27376 19.6591Z" fill="#313131"/>
<path fill-rule="evenodd" clip-rule="evenodd" d="M12.2184 17.1307H11.0471V20.2522H12.2184C12.4625 20.2522 12.6863 20.2144 12.8927 20.133C13.0962 20.0545 13.2734 19.9441 13.4217 19.8045C13.5699 19.6651 13.6833 19.4994 13.7646 19.3105C13.846 19.1186 13.8867 18.9152 13.8867 18.6943V18.6856C13.8867 18.4647 13.846 18.2613 13.7646 18.0724C13.6833 17.8806 13.5699 17.7178 13.4217 17.5783C13.2734 17.4388 13.0991 17.3284 12.8927 17.2499C12.6892 17.1685 12.4655 17.1307 12.2184 17.1307ZM12.6608 19.6767C12.5272 19.729 12.379 19.7552 12.2133 19.7552V19.7581H11.5942V17.6276H12.2133C12.376 17.6276 12.5271 17.6566 12.6608 17.709C12.7945 17.7613 12.9108 17.8369 13.0038 17.9299C13.0997 18.0229 13.1723 18.1363 13.2247 18.267C13.277 18.3978 13.3032 18.5403 13.3032 18.6914V18.7C13.3032 18.8512 13.277 18.9908 13.2247 19.1215C13.1723 19.2494 13.0968 19.3628 13.0038 19.4558C12.9108 19.5517 12.7945 19.6243 12.6608 19.6767Z" fill="#313131"/>
<path d="M18.255 20.2521C18.0254 20.2521 17.8103 20.2115 17.6185 20.1271C17.4237 20.0428 17.2552 19.9295 17.1128 19.787C16.9704 19.6446 16.857 19.4731 16.7756 19.2755C16.6942 19.0808 16.6536 18.8687 16.6536 18.6477V18.6391C16.6536 18.4153 16.6942 18.2089 16.7728 18.0142C16.8513 17.8194 16.9646 17.648 17.1099 17.5026C17.2553 17.3544 17.4267 17.241 17.6243 17.1568C17.8219 17.0726 18.0399 17.0289 18.2812 17.0289C18.4236 17.0289 18.5544 17.0406 18.6735 17.0638C18.7927 17.087 18.9002 17.122 18.999 17.1626C19.0978 17.2062 19.1879 17.2557 19.2722 17.3167C19.3565 17.3749 19.435 17.4417 19.5105 17.5143L19.1559 17.9183C19.0309 17.802 18.8973 17.709 18.7577 17.6392C18.6182 17.5665 18.4584 17.5317 18.2782 17.5317C18.1271 17.5317 17.9904 17.5607 17.8626 17.6189C17.7347 17.677 17.6243 17.7554 17.5313 17.8543C17.4382 17.9531 17.3656 18.0694 17.3162 18.2031C17.2668 18.3368 17.2406 18.4792 17.2406 18.6303V18.639C17.2406 18.79 17.2668 18.9325 17.3162 19.0691C17.3656 19.2057 17.4382 19.322 17.5313 19.4237C17.6243 19.5254 17.7347 19.6039 17.8626 19.662C17.9904 19.7202 18.127 19.7492 18.2782 19.7492C18.4701 19.7492 18.6328 19.7143 18.7723 19.6388C18.9088 19.5661 19.0455 19.4674 19.1821 19.3424L19.5367 19.6998C19.4553 19.787 19.371 19.8626 19.2838 19.9294C19.1966 19.9963 19.1007 20.0544 18.999 20.1038C18.8973 20.1532 18.7869 20.191 18.6647 20.2142C18.5369 20.2376 18.4032 20.2521 18.255 20.2521Z" fill="#313131"/>
<path fill-rule="evenodd" clip-rule="evenodd" d="M23.9717 17.1102H23.4602L22.0767 20.2521H22.6434L22.966 19.4993H24.4512L24.771 20.2521H25.3552L23.9717 17.1102ZM23.7069 17.7643L24.2504 19.0111H23.1692L23.7069 17.7643Z" fill="#313131"/>
<path d="M29.4358 20.2522C29.1917 20.2522 28.9621 20.2115 28.7412 20.1302C28.5203 20.0488 28.3139 19.9238 28.125 19.7552L28.4563 19.3629C28.6074 19.4936 28.7614 19.5954 28.9185 19.6622C29.0754 19.7319 29.2498 19.7669 29.4475 19.7669C29.6189 19.7669 29.7526 19.732 29.8543 19.6593C29.9532 19.5896 30.0054 19.4936 30.0054 19.3745V19.3658C30.0054 19.3106 29.9967 19.2583 29.9764 19.2176C29.956 19.1741 29.9212 19.1333 29.8688 19.0956C29.8165 19.0578 29.7438 19.02 29.6538 18.988C29.5637 18.956 29.4415 18.9212 29.2963 18.8892C29.1277 18.8514 28.9795 18.8078 28.8486 18.7584C28.7179 18.7091 28.6074 18.6509 28.5202 18.5812C28.433 18.5115 28.3633 18.4271 28.3168 18.3254C28.2703 18.2237 28.2471 18.1016 28.2471 17.9592V17.9506C28.2471 17.8168 28.2732 17.6948 28.3284 17.5844C28.3808 17.474 28.4563 17.378 28.5493 17.2996C28.6424 17.2211 28.7557 17.1601 28.8865 17.1135C29.0172 17.07 29.1597 17.0467 29.3166 17.0467C29.5462 17.0467 29.7555 17.0816 29.9386 17.1484C30.1216 17.2153 30.296 17.3111 30.4559 17.439L30.1595 17.8547C30.0141 17.75 29.8747 17.6716 29.7322 17.6164C29.5926 17.5612 29.4502 17.535 29.305 17.535C29.1422 17.535 29.0172 17.5699 28.9271 17.6426C28.8371 17.7152 28.7934 17.8024 28.7934 17.907V17.9157C28.7934 17.9739 28.8051 18.0291 28.8254 18.0726C28.8458 18.1191 28.8836 18.1598 28.9417 18.1976C28.9969 18.2354 29.0724 18.2703 29.1713 18.3023C29.2701 18.3343 29.3922 18.3692 29.5433 18.404C29.709 18.4447 29.8542 18.4912 29.9821 18.5436C30.11 18.5929 30.2147 18.6569 30.2989 18.7296C30.3831 18.8023 30.4471 18.8865 30.4908 18.9854C30.5343 19.0812 30.5548 19.1946 30.5548 19.3225V19.3312C30.5548 19.4765 30.5286 19.6073 30.4734 19.7235C30.4182 19.8397 30.3426 19.9386 30.2438 20.0171C30.1449 20.0985 30.0287 20.1595 29.8921 20.2002C29.7526 20.2319 29.6015 20.2522 29.4358 20.2522Z" fill="#313131"/>
<path d="M34.6876 17.6392H33.6907V17.1306H36.2396V17.6392H35.2427V20.2521H34.6877V17.6392H34.6876Z" fill="#313131"/>
<path d="M40.6873 20.2522C40.4432 20.2522 40.2136 20.2115 39.9927 20.1302C39.7718 20.0488 39.5654 19.9238 39.3765 19.7552L39.7078 19.3629C39.8589 19.4936 40.0129 19.5954 40.1699 19.6622C40.3268 19.729 40.5012 19.7669 40.6989 19.7669C40.8704 19.7669 41.0041 19.732 41.1058 19.6593C41.2046 19.5896 41.2569 19.4936 41.2569 19.3745V19.3658C41.2569 19.3106 41.2482 19.2583 41.2278 19.2176C41.2075 19.1741 41.1726 19.1333 41.1203 19.0956C41.068 19.0578 40.9953 19.02 40.9052 18.988C40.8152 18.956 40.693 18.9212 40.5477 18.8892C40.3792 18.8514 40.231 18.8078 40.1001 18.7584C39.9693 18.7091 39.8589 18.6509 39.7717 18.5812C39.6845 18.5115 39.6147 18.4271 39.5682 18.3254C39.5217 18.2237 39.4985 18.1016 39.4985 17.9592V17.9506C39.4985 17.8168 39.5247 17.6948 39.5799 17.5844C39.6322 17.474 39.7078 17.378 39.8008 17.2996C39.8938 17.2211 40.0072 17.1601 40.1379 17.1135C40.2687 17.07 40.414 17.0467 40.5681 17.0467C40.7977 17.0467 41.0069 17.0816 41.19 17.1484C41.3731 17.2153 41.5475 17.3111 41.7074 17.439L41.4109 17.8547C41.2656 17.75 41.1261 17.6716 40.9837 17.6164C40.8442 17.5612 40.7018 17.535 40.5564 17.535C40.3937 17.535 40.2687 17.5699 40.1786 17.6426C40.0886 17.7152 40.0449 17.8024 40.0449 17.907V17.9157C40.0449 17.9739 40.0566 18.0291 40.0769 18.0726C40.0972 18.1191 40.1351 18.1598 40.1931 18.1976C40.2483 18.2354 40.3239 18.2703 40.4227 18.3023C40.5216 18.3343 40.6436 18.3692 40.7947 18.404C40.9604 18.4447 41.1057 18.4912 41.2336 18.5436C41.3614 18.5929 41.4661 18.6569 41.5504 18.7296C41.6347 18.8023 41.6986 18.8865 41.7422 18.9854C41.7858 19.0812 41.8062 19.1946 41.8062 19.3225V19.3312C41.8062 19.4765 41.78 19.6073 41.7248 19.7235C41.6696 19.8397 41.5941 19.9386 41.4953 20.0171C41.3964 20.0985 41.2802 20.1595 41.1436 20.2002C41.0012 20.2319 40.853 20.2522 40.6873 20.2522Z" fill="#313131"/>
<path fill-rule="evenodd" clip-rule="evenodd" d="M0.00219727 8.62697C0.00219727 5.36801 2.64663 2.72357 5.90559 2.72357C9.1691 2.72357 11.809 5.36801 11.809 8.62697C11.809 11.8859 9.16455 14.5304 5.90559 14.5304C2.64663 14.5304 0.00219727 11.8859 0.00219727 8.62697ZM8.51406 9.82838C8.65063 9.45974 8.71887 9.07284 8.71887 8.66322H8.71432V8.63132C8.71432 8.22171 8.64609 7.83026 8.50952 7.46617C8.37294 7.10198 8.17722 6.77887 7.92689 6.49664C7.67656 6.21905 7.37616 5.99597 7.03024 5.8276C6.68431 5.65923 6.29741 5.57727 5.87871 5.57727C5.46001 5.57727 5.07765 5.65923 4.73627 5.81852C4.39489 5.98234 4.09903 6.20078 3.85324 6.47392C3.60291 6.74697 3.41637 7.07018 3.28434 7.43427C3.15231 7.80291 3.08862 8.18981 3.08862 8.59943V8.63132C3.08862 9.04094 3.15685 9.43239 3.29342 9.79648C3.43 10.1652 3.62118 10.4838 3.86697 10.766C4.1173 11.0436 4.41315 11.2667 4.75908 11.435C5.105 11.6034 5.4919 11.6854 5.9106 11.6854C6.33385 11.6854 6.71621 11.6034 7.06213 11.4441C7.40806 11.2803 7.70401 11.0618 7.94516 10.7887C8.18631 10.5157 8.37749 10.1925 8.51406 9.82838Z" fill="#313131"/>
<path d="M17.7127 2.48236H19.0873C19.5425 2.48236 19.9112 2.851 19.9112 3.30624V10.7708C19.9112 11.2259 20.2798 11.5947 20.7351 11.5947H24.3718C24.8269 11.5947 25.1956 11.9633 25.1956 12.4185V13.8568C25.1956 14.312 24.827 14.6807 24.3718 14.6807H17.7128C17.2577 14.6807 16.889 14.3121 16.889 13.8568V3.30614C16.8843 2.851 17.2531 2.48236 17.7127 2.48236Z" fill="#313131"/>
<path fill-rule="evenodd" clip-rule="evenodd" d="M37.3847 3.21972L41.3309 13.3925C41.5631 13.9387 41.1626 14.5395 40.566 14.5304H39.1232C38.7864 14.5304 38.486 14.3301 38.3585 14.0206L37.9853 13.1104C37.8579 12.8009 37.5529 12.6006 37.2206 12.6006H34.1211C33.7843 12.6006 33.4839 12.8054 33.3564 13.1194L32.9924 14.0206C32.865 14.3347 32.5646 14.5395 32.2277 14.5395H30.8531C30.2614 14.5395 29.8609 13.9387 30.093 13.3925L34.0393 3.21972C34.1712 2.91478 34.4671 2.71906 34.7994 2.71906H36.6246C36.9568 2.71906 37.2572 2.91478 37.3847 3.21972ZM35.0085 9.82862H36.3558C36.6197 9.82862 36.8018 9.56012 36.7062 9.31433L36.0372 7.62116C35.9144 7.30713 35.4683 7.30713 35.3408 7.62116L34.6626 9.31433C34.5625 9.56012 34.7446 9.82862 35.0085 9.82862Z" fill="#313131"/>
</svg>
