<svg width="16" height="16" viewBox="0 0 16 16" fill="none" xmlns="http://www.w3.org/2000/svg">
<path fill-rule="evenodd" clip-rule="evenodd" d="M16 8C16 12.4183 12.4183 16 8 16C3.58172 16 0 12.4183 0 8C0 3.58172 3.58172 0 8 0C12.4183 0 16 3.58172 16 8ZM11.2925 8.74648C11.0838 8.72938 10.9196 8.5582 10.9196 8.34943V7.26837V6.78312C10.9196 6.56301 11.1021 6.38466 11.3269 6.38466H11.7066C11.9314 6.38466 12.114 6.56301 12.114 6.78312V7.26837V8.3499C12.1139 8.35923 12.1136 8.36848 12.1129 8.37764V9.74249C12.1125 9.96213 11.9304 10.1405 11.7056 10.1405H11.3259C11.1011 10.1405 10.9185 9.96213 10.9185 9.74202V8.34935C10.9185 8.55845 11.0833 8.72987 11.2925 8.74648ZM13.5428 7.6438H13.1579C12.9345 7.6438 12.7534 7.46263 12.7534 7.23926V6.50056C12.7534 6.27716 12.9345 6.09602 13.1579 6.09602H13.5428C13.7662 6.09602 13.9473 6.27718 13.9473 6.50056V7.23926C13.9473 7.46266 13.7662 7.6438 13.5428 7.6438ZM2.11888 7.6438H2.50371C2.72708 7.6438 2.90825 7.46266 2.90825 7.23926V6.50056C2.90825 6.27718 2.72711 6.09602 2.50371 6.09602H2.11888C1.89548 6.09602 1.71434 6.27716 1.71434 6.50056V7.23926C1.71434 7.46263 1.89548 7.6438 2.11888 7.6438ZM9.91445 5.14289H9.44748C9.24661 5.14289 9.08376 5.30387 9.08376 5.50238V7.14935L9.08372 7.15434V8.15892V11.0295C9.08372 11.228 9.24658 11.389 9.44744 11.389H9.91441C10.1153 11.389 10.2781 11.2285 10.2781 11.03V8.15939V7.15434C10.2781 6.95583 10.1153 6.79485 9.91441 6.79485H9.44744C9.41366 6.79485 9.38095 6.7994 9.34991 6.80792C9.38096 6.79939 9.41368 6.79482 9.44748 6.79482H9.91445C10.1153 6.79482 10.2782 6.95579 10.2782 7.1543V5.50238C10.2782 5.30384 10.1153 5.14289 9.91445 5.14289ZM4.38649 5.14289H3.91952C3.71866 5.14289 3.5558 5.27195 3.5558 5.43058V7.14168C3.55543 7.14697 3.55525 7.1523 3.55525 7.15766V9.62531V9.85291C3.55525 10.012 3.7181 10.1406 3.91896 10.1406H4.38593C4.5868 10.1406 4.74965 10.012 4.74965 9.85339V9.62578V7.15766C4.74965 6.99859 4.5868 6.86998 4.38593 6.86998H3.91896L3.90752 6.87012L3.91952 6.86996H4.38649C4.58735 6.86996 4.75021 6.99855 4.75021 7.15765V5.43058C4.75021 5.27148 4.58735 5.14289 4.38649 5.14289ZM5.74427 9.02339C5.54767 8.99517 5.39652 8.82946 5.39652 8.62918V7.10477V6.78312C5.39652 6.56301 5.57863 6.38466 5.80388 6.38466H6.18356C6.40837 6.38466 6.59093 6.56301 6.59093 6.78312V7.10477V8.62918L6.59063 8.64452V9.74256C6.59063 9.96267 6.40808 10.141 6.18327 10.141H5.80359C5.57877 10.141 5.39622 9.96267 5.39622 9.74256V8.62913C5.39622 8.82952 5.54752 8.99529 5.74427 9.02339ZM8.07293 9.70693H7.60596C7.4051 9.70693 7.24224 9.54596 7.24224 9.34745V11.03C7.24224 11.2285 7.4051 11.3894 7.60596 11.3894H8.07293C8.27379 11.3894 8.43665 11.2285 8.43665 11.03V9.34745C8.43665 9.54596 8.27379 9.70693 8.07293 9.70693ZM7.60596 5.14289H8.07293C8.27379 5.14289 8.43665 5.30384 8.43665 5.50238V6.11857V9.3474C8.43665 9.54592 8.27379 9.70689 8.07293 9.70689H7.60596C7.4051 9.70689 7.24224 9.54592 7.24224 9.3474V6.11857V5.50238C7.24224 5.30387 7.4051 5.14289 7.60596 5.14289Z" fill="#606060"/>
</svg>
