<svg width="15" height="16" viewBox="0 0 15 16" fill="none" xmlns="http://www.w3.org/2000/svg">
<path d="M7.02311 13.091C9.88439 13.091 12.2254 10.7808 12.2254 7.9573C12.2254 5.13377 9.88439 2.82361 7.02311 2.82361C4.16184 2.82361 1.8208 5.13377 1.8208 7.9573C1.8208 10.8664 4.16184 13.091 7.02311 13.091ZM6.50288 5.39045C6.50288 5.13377 6.763 4.96265 6.93641 4.96265C7.19652 4.96265 7.36993 5.21933 7.36993 5.39045V8.04286L9.36415 10.0108C9.53756 10.1819 9.53756 10.4386 9.36415 10.6097C9.27745 10.6953 9.10404 10.7808 9.10404 10.7808C9.01733 10.7808 8.84392 10.6953 8.84392 10.6097L6.67629 8.47067C6.58959 8.47067 6.50288 8.29954 6.50288 8.21398V5.39045Z" fill="#606060"/>
<path d="M6.93642 0C4.59538 0 2.34104 1.02674 0.780347 2.82353L0 2.2246L0.433526 4.53476L2.77457 4.10695L1.99422 3.59358C3.2948 2.2246 5.0289 1.45455 6.93642 1.45455C10.578 1.45455 13.526 4.36364 13.526 7.95722C13.526 11.5508 10.578 14.4599 6.93642 14.4599C5.54913 14.4599 4.16185 14.0321 3.03468 13.262C3.03468 13.0053 2.94798 12.7487 2.77457 12.5775C2.34104 12.1497 1.6474 12.1497 1.21387 12.5775C0.780347 13.0053 0.780347 13.6898 1.21387 14.1176C1.47399 14.3743 1.82081 14.4599 2.16763 14.4599C3.46821 15.4011 5.20231 16 6.93642 16C11.4451 16 15 12.4064 15 8.04278C15 3.67914 11.3584 0 6.93642 0Z" fill="#606060"/>
</svg>
