<svg width="17" height="16" viewBox="0 0 17 16" fill="none" xmlns="http://www.w3.org/2000/svg">
<path fill-rule="evenodd" clip-rule="evenodd" d="M16.9607 6.0788C16.7 5.2778 15.2653 5.09479 13.7462 4.89726C12.9135 4.78994 11.9674 4.66863 11.682 4.46073C11.3944 4.25439 10.9934 3.40569 10.6388 2.65549C9.99399 1.29145 9.38349 0.00466603 8.52974 0.00259224L8.51391 0C7.66754 0.0139981 7.05071 1.28523 6.39483 2.63475C6.03339 3.3808 5.62234 4.22639 5.33582 4.43118C5.04614 4.63389 4.10005 4.74795 3.26477 4.84749C1.74722 5.02895 0.310412 5.199 0.0423622 5.99585C-0.225688 6.79271 0.822768 7.77206 1.93402 8.80688C2.54399 9.37614 3.23469 10.0211 3.34339 10.3529C3.45209 10.6847 3.26793 11.6055 3.107 12.4148C2.81257 13.8892 2.53449 15.2854 3.22256 15.7847C3.38718 15.9003 3.59403 15.9589 3.83833 15.9537C4.54064 15.9428 5.55111 15.4057 6.5278 14.8852C7.25967 14.4922 8.08967 14.0489 8.45903 14.0448C8.81626 14.0448 9.6489 14.5005 10.3834 14.9023C11.3823 15.4472 12.4159 16.0112 13.1193 15.9998C13.3388 15.9967 13.5261 15.9412 13.6791 15.8329C14.3714 15.343 14.1076 13.9473 13.8295 12.4671C13.6765 11.6563 13.505 10.7334 13.6132 10.4016C13.7251 10.0714 14.4237 9.43472 15.0395 8.86961C16.1607 7.84464 17.2192 6.87981 16.9607 6.0788Z" fill="#606060"/>
</svg>
