<svg width="13" height="16" viewBox="0 0 13 16" fill="none" xmlns="http://www.w3.org/2000/svg">
<path fill-rule="evenodd" clip-rule="evenodd" d="M4.0625 0.4C4.0625 0.179086 4.24159 0 4.4625 0H8.5375C8.75841 0 8.9375 0.179086 8.9375 0.4C8.9375 0.620914 8.75841 0.8 8.5375 0.8H4.4625C4.24159 0.8 4.0625 0.620914 4.0625 0.4ZM2.4375 2C2.4375 1.77909 2.61659 1.6 2.8375 1.6H10.1625C10.3834 1.6 10.5625 1.77909 10.5625 2C10.5625 2.22091 10.3834 2.4 10.1625 2.4H2.8375C2.61659 2.4 2.4375 2.22091 2.4375 2ZM0 5.2C0 4.09543 0.895431 3.2 2 3.2H11C12.1046 3.2 13 4.09543 13 5.2V14C13 15.1046 12.1046 16 11 16H2C0.89543 16 0 15.1046 0 14V5.2ZM4.31794 7.85663C4.31794 7.06828 5.20665 6.59478 5.8769 7.02602L8.58648 8.76937C9.19512 9.16097 9.19512 10.039 8.58648 10.4306L5.8769 12.1739C5.20665 12.6052 4.31794 12.1317 4.31794 11.3433V9.59998V7.85663Z" fill="#606060"/>
</svg>
