<svg width="23" height="16" viewBox="0 0 23 16" fill="none" xmlns="http://www.w3.org/2000/svg">
<path d="M11.94 0.00264586C12.0976 -0.000443654 12.2511 0.0733081 12.3738 0.211132C12.4965 0.348956 12.5808 0.542174 12.6119 0.757336L12.6234 0.922093V15.0805C12.6217 15.2988 12.5647 15.5092 12.4623 15.6745C12.36 15.8399 12.2189 15.9495 12.0641 15.984L11.94 15.9999H11.0638C10.9061 16.0021 10.7528 15.9281 10.6299 15.7905C10.507 15.6528 10.4222 15.4602 10.39 15.2453V15.0805V0.922093C10.3916 0.703514 10.4485 0.492731 10.5509 0.326937C10.6532 0.161144 10.7943 0.050996 10.9493 0.0159324L11.0734 0.00264586H11.94ZM15.4084 0.00264586C15.5662 -3.92926e-05 15.7197 0.0738055 15.8427 0.21151C15.9657 0.349214 16.0503 0.542194 16.0822 0.757336L16.0918 0.922093V15.0805C16.0902 15.2988 16.0331 15.5092 15.9308 15.6745C15.8284 15.8399 15.6873 15.9495 15.5325 15.984L15.4084 15.9999H14.5322C14.3744 16.0024 14.2209 15.9281 14.0983 15.7898C13.9756 15.6515 13.8914 15.458 13.8603 15.2426L13.8489 15.0778V0.922093C13.8504 0.703514 13.9074 0.492731 14.0097 0.326937C14.1121 0.161144 14.2532 0.050996 14.4082 0.0159324L14.5322 0.00264586H15.4084ZM8.39904 3.19148C8.57633 3.18585 8.74951 3.26632 8.88883 3.41906C9.02816 3.5718 9.12495 3.78729 9.16259 4.02854L9.17404 4.2119V11.7827C9.17133 12.0291 9.10567 12.266 8.98883 12.4511C8.872 12.6361 8.71162 12.7572 8.53648 12.7925L8.39904 12.8085H7.68512C7.50977 12.8104 7.3393 12.7282 7.20234 12.5758C7.06538 12.4233 6.97028 12.2099 6.93302 11.9714L6.91966 11.788V4.20127C6.92259 3.95797 6.98724 3.72394 7.10217 3.5406C7.2171 3.35726 7.37491 3.23642 7.54768 3.19945L7.68512 3.18085L8.39904 3.19148ZM18.7757 3.19148C18.9505 3.1893 19.1205 3.27071 19.2574 3.4221C19.3943 3.57348 19.4897 3.78568 19.5278 4.02323L19.5411 4.20659V11.7827C19.5392 12.0272 19.475 12.2629 19.36 12.4478C19.245 12.6327 19.0867 12.7548 18.9131 12.7925L18.7757 12.8085H18.0617C17.8861 12.811 17.7152 12.7291 17.5778 12.5766C17.4404 12.4241 17.3451 12.2104 17.3077 11.9714L17.2963 11.788V4.20127C17.2989 3.95952 17.3625 3.72675 17.4759 3.54362C17.5893 3.3605 17.7453 3.23868 17.9167 3.19945L18.0541 3.18085L18.7757 3.19148ZM5.03179 0.00264586C5.17524 -0.0125789 5.31831 0.0382026 5.43902 0.147185C5.55972 0.256166 5.65138 0.417317 5.69989 0.605866L5.71134 0.738734V12.0671C5.71134 12.4258 5.46892 12.7261 5.15014 12.7899H5.02797H4.14989C4.00587 12.8058 3.86206 12.7554 3.74064 12.6464C3.61922 12.5374 3.52692 12.3759 3.47796 12.1866L3.46651 12.0538V0.738734C3.46651 0.377333 3.70894 0.0770521 4.02772 0.0132755H4.14989L5.03179 0.00264586ZM22.2365 2.4421C22.3355 2.43999 22.4339 2.46517 22.526 2.51617C22.6181 2.56718 22.702 2.64302 22.773 2.73933C22.8439 2.83563 22.9005 2.95051 22.9395 3.07736C22.9784 3.20421 22.999 3.34052 23 3.47847V5.37051C22.999 5.50846 22.9784 5.64477 22.9395 5.77162C22.9005 5.89847 22.8439 6.01335 22.773 6.10965C22.702 6.20596 22.6181 6.2818 22.526 6.33281C22.4339 6.38381 22.3355 6.40899 22.2365 6.40688H21.513C21.3137 6.40697 21.1224 6.29863 20.9797 6.105C20.8371 5.91137 20.7544 5.64779 20.7494 5.37051V3.49176C20.7544 3.21448 20.8371 2.95089 20.9797 2.75726C21.1224 2.56363 21.3137 2.4553 21.513 2.45539L22.2365 2.4421ZM1.49465 2.4421C1.69389 2.44201 1.88526 2.55035 2.02792 2.74398C2.17058 2.93761 2.25321 3.20119 2.2582 3.47847V5.37051C2.25321 5.64779 2.17058 5.91137 2.02792 6.105C1.88526 6.29863 1.69389 6.40697 1.49465 6.40688H0.763549C0.564307 6.40697 0.372933 6.29863 0.230276 6.105C0.0876196 5.91137 0.00498103 5.64779 0 5.37051V3.49176C0.00498103 3.21448 0.0876196 2.95089 0.230276 2.75726C0.372933 2.56363 0.564307 2.4553 0.763549 2.45539L1.49465 2.4421Z" fill="#606060"/>
</svg>
