<svg width="17" height="16" viewBox="0 0 17 16" fill="none" xmlns="http://www.w3.org/2000/svg">
<path fill-rule="evenodd" clip-rule="evenodd" d="M16.787 7.80645C17.0952 7.47696 17.0654 6.97196 16.7206 6.67878L9.12306 0.215913C8.77821 -0.0772654 8.22533 -0.0711239 7.88774 0.229759L0.264398 7.02335C-0.0731929 7.32423 -0.0897621 7.8286 0.227713 8.14941L0.418841 8.34293C0.735928 8.66374 1.24847 8.70199 1.56289 8.4281L2.13262 7.93209V15.1938C2.13262 15.6393 2.50396 16 2.96191 16H5.93351C6.39146 16 6.7628 15.6393 6.7628 15.1938V10.1135H10.5531V15.1938C10.5465 15.639 10.8742 15.9997 11.3321 15.9997H14.4813C14.9392 15.9997 15.3106 15.639 15.3106 15.1935V8.03434C15.3106 8.03434 15.468 8.16838 15.6621 8.33425C15.8559 8.4998 16.2629 8.36706 16.5711 8.03725L16.787 7.80645Z" fill="#606060"/>
</svg>
