<svg width="20" height="22" viewBox="0 0 20 22" fill="none" xmlns="http://www.w3.org/2000/svg">
<path d="M17.8076 12.8802C17.2111 12.8802 16.7221 13.3022 16.6386 13.8609C16.066 17.704 12.1415 20.5208 7.78755 19.5173C5.10362 18.9014 3.12348 16.9286 2.55091 14.3513C1.58469 9.93802 5.10362 6.0379 9.55298 6.0379V9.21958C9.55298 9.73275 10.1971 9.98364 10.5669 9.61871L15.0878 5.29665C15.3264 5.06858 15.3264 4.71506 15.0878 4.48698L10.5669 0.164921C10.1971 -0.188599 9.55298 0.062286 9.55298 0.575459V3.75713C3.66026 3.75713 -0.991881 8.86606 0.200977 14.7048C0.916692 18.2514 3.66026 20.9769 7.34619 21.7638C13.1077 22.9954 18.2608 19.255 19.0004 14.1574C19.1078 13.4846 18.5233 12.8802 17.8076 12.8802ZM7.81141 15.4119C7.73984 15.4689 7.66827 15.5145 7.57284 15.5487C7.47741 15.5829 7.37005 15.5943 7.25077 15.5943C7.14341 15.5943 7.04798 15.5829 6.95255 15.5487C6.85712 15.5145 6.78555 15.4803 6.71398 15.4233C6.64241 15.3663 6.59469 15.3092 6.55891 15.2294C6.52312 15.1496 6.49927 15.0698 6.49927 14.9785H5.48534C5.48534 15.218 5.53305 15.4233 5.62848 15.6057C5.72391 15.7882 5.85512 15.925 6.02212 16.0391C6.18912 16.1531 6.36805 16.2444 6.57084 16.3014C6.77362 16.3584 6.98834 16.3812 7.20305 16.3812C7.45355 16.3812 7.69212 16.347 7.91877 16.29C8.14541 16.2329 8.32434 16.1303 8.49134 16.0163C8.65834 15.9022 8.77762 15.7426 8.87305 15.5715C8.96848 15.4005 9.0162 15.1952 9.0162 14.9671C9.0162 14.7048 8.94462 14.4653 8.80148 14.2715C8.65834 14.0776 8.44362 13.9294 8.15734 13.8267C8.27662 13.7697 8.39591 13.7127 8.49134 13.6329C8.58677 13.553 8.67027 13.4732 8.72991 13.382C8.78955 13.2908 8.84919 13.1995 8.88498 13.0969C8.92077 12.9943 8.93269 12.8916 8.93269 12.789C8.93269 12.5609 8.88498 12.367 8.80148 12.1846C8.71798 12.0021 8.59869 11.8653 8.44362 11.7512C8.28855 11.6372 8.10962 11.546 7.89491 11.4889C7.68019 11.4319 7.45355 11.3977 7.19112 11.3977C6.96448 11.3977 6.73784 11.4319 6.54698 11.4889C6.35612 11.546 6.16527 11.6372 6.02212 11.7512C5.87898 11.8653 5.74777 12.0021 5.66426 12.1732C5.58076 12.3442 5.53305 12.5153 5.53305 12.7206H6.54698C6.54698 12.6407 6.57084 12.5609 6.60662 12.4925C6.64241 12.4241 6.69012 12.367 6.74977 12.3214C6.80941 12.2758 6.88098 12.2416 6.96448 12.2074C7.04798 12.1732 7.13148 12.1732 7.22691 12.1732C7.34619 12.1732 7.44162 12.1846 7.52512 12.2188C7.60862 12.253 7.68019 12.2872 7.73984 12.3442C7.79948 12.4013 7.83527 12.4697 7.87105 12.5381C7.90684 12.6065 7.91877 12.6978 7.91877 12.789C7.91877 12.9943 7.85912 13.1539 7.72791 13.2793C7.59669 13.4048 7.41777 13.4618 7.15534 13.4618H6.64241V14.2145H7.17919C7.31041 14.2145 7.41777 14.2259 7.52512 14.2601C7.63248 14.2943 7.71598 14.3285 7.78755 14.3855C7.85912 14.4425 7.91877 14.5224 7.95455 14.6136C7.99034 14.7048 8.01419 14.8189 8.01419 14.9443C8.01419 15.0469 8.00227 15.1382 7.96648 15.218C7.93069 15.2978 7.87105 15.3434 7.81141 15.4119ZM12.4636 11.4889C12.2488 11.4091 12.0222 11.3749 11.7598 11.3749C11.4973 11.3749 11.2707 11.4091 11.056 11.4889C10.8413 11.5688 10.6623 11.6942 10.5192 11.8653C10.3761 12.0363 10.2448 12.253 10.1733 12.5153C10.1017 12.7776 10.054 13.0855 10.054 13.4504V14.2943C10.054 14.6592 10.1017 14.9785 10.1852 15.2294C10.2687 15.4803 10.388 15.7084 10.5431 15.8794C10.6981 16.0505 10.8771 16.1759 11.0918 16.2558C11.3065 16.3356 11.5331 16.3698 11.7956 16.3698C12.058 16.3698 12.2846 16.3356 12.4993 16.2558C12.7141 16.1759 12.893 16.0505 13.0361 15.8794C13.1793 15.7084 13.2986 15.4917 13.3821 15.2294C13.4656 14.9671 13.5013 14.6592 13.5013 14.2943V13.4504C13.5013 13.0855 13.4536 12.7662 13.3701 12.5153C13.2866 12.2644 13.1673 12.0363 13.0123 11.8653C12.8572 11.6942 12.6783 11.5688 12.4636 11.4889ZM12.4755 14.4197C12.4755 14.6364 12.4636 14.8189 12.4278 14.9671C12.392 15.1154 12.3562 15.2408 12.2966 15.332C12.2369 15.4233 12.1653 15.4917 12.0699 15.5259C11.9745 15.5601 11.8791 15.5829 11.7717 15.5829C11.6643 15.5829 11.557 15.5601 11.4735 15.5259C11.39 15.4917 11.3065 15.4233 11.2468 15.332C11.1872 15.2408 11.1395 15.1154 11.1037 14.9671C11.0679 14.8189 11.056 14.6364 11.056 14.4197V13.3136C11.056 13.0969 11.0679 12.9144 11.1037 12.7662C11.1395 12.6179 11.1753 12.5039 11.2468 12.4127C11.3184 12.3214 11.3781 12.253 11.4735 12.2188C11.5689 12.1846 11.6643 12.1618 11.7717 12.1618C11.8791 12.1618 11.9864 12.1846 12.0699 12.2188C12.1534 12.253 12.2369 12.3214 12.2966 12.4127C12.3562 12.5039 12.4039 12.6179 12.4397 12.7662C12.4755 12.9144 12.4874 13.0969 12.4874 13.3136V14.4197H12.4755Z" fill="white"/>
</svg>
