<svg width="15" height="20" viewBox="0 0 15 20" fill="none" xmlns="http://www.w3.org/2000/svg">
<path fill-rule="evenodd" clip-rule="evenodd" d="M12.7561 11.5139L14.8193 14.6489C15.0366 14.9792 15.0596 15.4066 14.879 15.7598C14.6984 16.1129 14.3439 16.3337 13.9577 16.3337H1.04227C0.656057 16.3337 0.301544 16.1129 0.120962 15.7598C-0.0596199 15.4067 -0.0366368 14.9792 0.180693 14.649L2.24392 11.5139V7.60262C2.24392 4.96488 4.06001 2.76614 6.46933 2.27059V1.06611C6.46933 0.477343 6.93076 0 7.49999 0C8.06922 0 8.53065 0.477343 8.5307 1.06611V2.27055C10.94 2.76605 12.7561 4.9648 12.7561 7.60257V11.5139ZM5.20766 17.6234C5.20776 17.62 5.20792 17.6165 5.20794 17.6131H9.79212C9.79214 17.6158 9.79224 17.6185 9.79234 17.6212C9.79242 17.6237 9.7925 17.6262 9.7925 17.6287C9.7925 18.9383 8.76613 20 7.50003 20C6.23394 20 5.20757 18.9383 5.20757 17.6287C5.20757 17.6269 5.2076 17.6252 5.20766 17.6234Z" fill="#606060"/>
</svg>
