<svg width="34" height="34" viewBox="0 0 34 34" fill="none" xmlns="http://www.w3.org/2000/svg">
<path d="M14.96 23.63L22.899 17.68C23.358 17.34 23.358 16.66 22.899 16.32L14.96 10.37C14.399 9.945 13.6 10.353 13.6 11.05V22.95C13.6 23.647 14.399 24.055 14.96 23.63ZM17 0C7.616 0 0 7.616 0 17C0 26.384 7.616 34 17 34C26.384 34 34 26.384 34 17C34 7.616 26.384 0 17 0ZM17 30.6C9.503 30.6 3.4 24.497 3.4 17C3.4 9.503 9.503 3.4 17 3.4C24.497 3.4 30.6 9.503 30.6 17C30.6 24.497 24.497 30.6 17 30.6Z" fill="white"/>
</svg>
