<svg width="18" height="12" viewBox="0 0 18 12" fill="none" xmlns="http://www.w3.org/2000/svg">
<path d="M0.87 1.71429H9.57C10.0533 1.71429 10.44 1.33333 10.44 0.857143C10.44 0.380952 10.0533 0 9.57 0H0.87C0.386667 0 0 0.380952 0 0.857143C0 1.33333 0.386667 1.71429 0.87 1.71429Z" fill="#B2B2B2"/>
<path d="M0.87 5.143H9.57C10.0533 5.143 10.44 4.76204 10.44 4.28585C10.44 3.80966 10.0533 3.42871 9.57 3.42871H0.87C0.386667 3.42871 0 3.80966 0 4.28585C0 4.76204 0.386667 5.143 0.87 5.143Z" fill="#B2B2B2"/>
<path d="M16.5302 6.85728H13.9202V4.28585C13.9202 3.80966 13.5335 3.42871 13.0502 3.42871C12.5669 3.42871 12.1802 3.80966 12.1802 4.28585V6.85728H9.5702C9.08686 6.85728 8.7002 7.23823 8.7002 7.71443C8.7002 8.19062 9.08686 8.57157 9.5702 8.57157H12.1802V11.143C12.1802 11.6192 12.5669 12.0001 13.0502 12.0001C13.5335 12.0001 13.9202 11.6192 13.9202 11.143V8.57157H16.5302C17.0135 8.57157 17.4002 8.19062 17.4002 7.71443C17.4002 7.23823 17.0135 6.85728 16.5302 6.85728Z" fill="#B2B2B2"/>
<path d="M6.09 6.85693H0.87C0.386667 6.85693 0 7.23789 0 7.71408C0 8.19027 0.386667 8.57122 0.87 8.57122H6.09C6.57333 8.57122 6.96 8.19027 6.96 7.71408C6.96 7.23789 6.57333 6.85693 6.09 6.85693Z" fill="#B2B2B2"/>
</svg>
