<svg width="66" height="66" viewBox="0 0 66 66" fill="none" xmlns="http://www.w3.org/2000/svg">
<path d="M47.9145 30.6797L25.227 16.8867C23.1902 15.7523 20.625 17.209 20.625 19.5938V46.4062C20.625 48.7781 23.1773 50.2477 25.227 49.1133L47.9145 36.0938C50.0285 34.9207 50.0285 31.8656 47.9145 30.6797ZM64.9688 33C64.9688 15.3398 50.6602 1.03125 33 1.03125C15.3398 1.03125 1.03125 15.3398 1.03125 33C1.03125 50.6602 15.3398 64.9688 33 64.9688C50.6602 64.9688 64.9688 50.6602 64.9688 33ZM7.21875 33C7.21875 18.7559 18.7559 7.21875 33 7.21875C47.2441 7.21875 58.7812 18.7559 58.7812 33C58.7812 47.2441 47.2441 58.7812 33 58.7812C18.7559 58.7812 7.21875 47.2441 7.21875 33Z" fill="#FFCA00"/>
</svg>
