<svg width="19" height="21" viewBox="0 0 19 21" fill="none" xmlns="http://www.w3.org/2000/svg">
<path d="M8.97018 3.58182V0.545765C8.97018 0.0560792 8.36015 -0.183323 8.00994 0.164898L3.72843 4.28914C3.50249 4.50678 3.50249 4.84412 3.72843 5.06175L8.00994 9.18599C8.36015 9.52333 8.97018 9.28393 8.97018 8.80513V5.7582C13.1839 5.7582 16.5165 9.47981 15.5901 13.6911C15.0592 16.1613 12.9806 18.1527 10.4275 18.6641C6.39449 19.4803 2.80209 16.8142 2.25984 13.2123C2.19206 12.69 1.71759 12.2873 1.15274 12.2873C0.474931 12.2873 -0.0673191 12.8641 0.0230559 13.517C0.723462 18.2941 5.44555 21.8308 10.789 20.8296C14.3136 20.1658 17.1491 17.4345 17.8382 14.0393C18.9566 8.45691 14.5621 3.58182 8.97018 3.58182ZM7.72752 15.5519H6.76729V12.0044L5.6263 12.3417V11.5909L7.62585 10.9053H7.72752V15.5519ZM12.5626 13.6367C12.5626 13.9849 12.5287 14.2896 12.4496 14.529C12.3705 14.7684 12.2576 14.986 12.122 15.1493C11.9864 15.3125 11.8057 15.4322 11.6136 15.5084C11.4216 15.5846 11.1957 15.6172 10.9471 15.6172C10.6986 15.6172 10.484 15.5846 10.2806 15.5084C10.0773 15.4322 9.90782 15.3125 9.76096 15.1493C9.6141 14.986 9.50113 14.7793 9.42205 14.529C9.34298 14.2787 9.29779 13.9849 9.29779 13.6367V12.8314C9.29779 12.4832 9.33168 12.1785 9.41076 11.9391C9.48983 11.6997 9.6028 11.4821 9.73837 11.3188C9.87393 11.1556 10.0547 11.0359 10.2467 10.9597C10.4388 10.8836 10.6647 10.8509 10.9132 10.8509C11.1618 10.8509 11.3764 10.8836 11.5798 10.9597C11.7831 11.0359 11.9526 11.1556 12.0994 11.3188C12.2463 11.4821 12.3592 11.6888 12.4383 11.9391C12.5174 12.1894 12.5626 12.4832 12.5626 12.8314V13.6367ZM11.6023 12.7008C11.6023 12.4941 11.5911 12.32 11.5572 12.1785C11.5233 12.0371 11.4781 11.9282 11.4216 11.8412C11.3651 11.7541 11.2973 11.6888 11.207 11.6562C11.1166 11.6235 11.0262 11.6018 10.9245 11.6018C10.8229 11.6018 10.7212 11.6235 10.6421 11.6562C10.563 11.6888 10.484 11.7541 10.4275 11.8412C10.371 11.9282 10.3258 12.0371 10.2919 12.1785C10.258 12.32 10.2467 12.4941 10.2467 12.7008V13.7564C10.2467 13.9632 10.258 14.1373 10.2919 14.2787C10.3258 14.4202 10.371 14.5399 10.4275 14.6269C10.484 14.714 10.5517 14.7793 10.6421 14.8119C10.7325 14.8446 10.8229 14.8663 10.9245 14.8663C11.0262 14.8663 11.1279 14.8446 11.207 14.8119C11.286 14.7793 11.3651 14.714 11.4216 14.6269C11.4781 14.5399 11.5233 14.4202 11.5459 14.2787C11.5685 14.1373 11.5911 13.9632 11.5911 13.7564V12.7008H11.6023Z" fill="white"/>
</svg>
