<svg width="328" height="22" viewBox="0 0 328 22" fill="none" xmlns="http://www.w3.org/2000/svg">
<path d="M37.8601 5.56445C37.385 5.56445 37 5.94948 37 6.42453V14.7115C37 15.1865 37.385 15.5716 37.8601 15.5716C38.3351 15.5716 38.7202 15.1865 38.7202 14.7115V6.42453C38.7202 5.94948 38.3351 5.56445 37.8601 5.56445Z" fill="#F4F4F4"/>
<path d="M145.377 5.56445C144.902 5.56445 144.517 5.94948 144.517 6.42453V14.7115C144.517 15.1865 144.902 15.5716 145.377 15.5716C145.852 15.5716 146.237 15.1865 146.237 14.7115V6.42453C146.237 5.94948 145.852 5.56445 145.377 5.56445Z" fill="#A5A5A5"/>
<path d="M41.5676 3.17969C41.0925 3.17969 40.7075 3.56472 40.7075 4.03977V17.2974C40.7075 17.7725 41.0925 18.1575 41.5676 18.1575C42.0426 18.1575 42.4277 17.7725 42.4277 17.2974V4.03977C42.4277 3.56472 42.0426 3.17969 41.5676 3.17969Z" fill="#F4F4F4"/>
<path d="M149.085 3.17969C148.61 3.17969 148.225 3.56472 148.225 4.03977V17.2974C148.225 17.7725 148.61 18.1575 149.085 18.1575C149.56 18.1575 149.945 17.7725 149.945 17.2974V4.03977C149.945 3.56472 149.56 3.17969 149.085 3.17969Z" fill="#A5A5A5"/>
<path d="M45.2751 0C44.8001 0 44.415 0.385029 44.415 0.860079V21.0357C44.415 21.5108 44.8001 21.8958 45.2751 21.8958C45.7502 21.8958 46.1352 21.5108 46.1352 21.0357V0.860079C46.1352 0.385124 45.7502 0 45.2751 0Z" fill="#F4F4F4"/>
<path d="M152.792 0C152.317 0 151.932 0.385029 151.932 0.860079V21.0357C151.932 21.5108 152.317 21.8958 152.792 21.8958C153.268 21.8958 153.653 21.5108 153.653 21.0357V0.860079C153.653 0.385124 153.268 0 152.792 0Z" fill="#A5A5A5"/>
<path d="M48.9826 4.76953C48.5076 4.76953 48.1226 5.15456 48.1226 5.62961V15.7779C48.1226 16.2529 48.5076 16.638 48.9826 16.638C49.4577 16.638 49.8427 16.2529 49.8427 15.7779V5.62961C49.8427 5.15456 49.4577 4.76953 48.9826 4.76953Z" fill="#F4F4F4"/>
<path d="M252.895 4.76953C252.42 4.76953 252.035 5.15456 252.035 5.62961V15.7779C252.035 16.2529 252.42 16.638 252.895 16.638C253.37 16.638 253.755 16.2529 253.755 15.7779V5.62961C253.755 5.15456 253.37 4.76953 252.895 4.76953Z" fill="#A5A5A5"/>
<path d="M319.643 4.76953C319.167 4.76953 318.782 5.15456 318.782 5.62961V15.7779C318.782 16.2529 319.167 16.638 319.643 16.638C320.118 16.638 320.503 16.2529 320.503 15.7779V5.62961C320.503 5.15456 320.118 4.76953 319.643 4.76953Z" fill="#A5A5A5"/>
<path d="M271.432 16.6934C271.907 16.6934 272.292 16.3083 272.292 15.8333L272.292 5.68501C272.292 5.20996 271.907 4.82494 271.432 4.82494C270.957 4.82494 270.572 5.20996 270.572 5.68501L270.572 15.8333C270.572 16.3083 270.957 16.6934 271.432 16.6934Z" fill="#A5A5A5"/>
<path d="M156.5 4.76953C156.025 4.76953 155.64 5.15456 155.64 5.62961V15.7779C155.64 16.2529 156.025 16.638 156.5 16.638C156.975 16.638 157.36 16.2529 157.36 15.7779V5.62961C157.36 5.15456 156.975 4.76953 156.5 4.76953Z" fill="#A5A5A5"/>
<path d="M52.69 5.56445C52.215 5.56445 51.83 5.94948 51.83 6.42453V14.7115C51.83 15.1865 52.215 15.5716 52.69 15.5716C53.1651 15.5716 53.5501 15.1865 53.5501 14.7115V6.42453C53.5501 5.94948 53.165 5.56445 52.69 5.56445Z" fill="#F4F4F4"/>
<path d="M256.602 5.56445C256.127 5.56445 255.742 5.94948 255.742 6.42453V14.7115C255.742 15.1865 256.127 15.5716 256.602 15.5716C257.077 15.5716 257.462 15.1865 257.462 14.7115V6.42453C257.462 5.94948 257.077 5.56445 256.602 5.56445Z" fill="#A5A5A5"/>
<path d="M323.35 5.56445C322.875 5.56445 322.49 5.94948 322.49 6.42453V14.7115C322.49 15.1865 322.875 15.5716 323.35 15.5716C323.825 15.5716 324.21 15.1865 324.21 14.7115V6.42453C324.21 5.94948 323.825 5.56445 323.35 5.56445Z" fill="#A5A5A5"/>
<path d="M267.725 15.8984C268.2 15.8984 268.585 15.5134 268.585 15.0384L268.585 6.7514C268.585 6.27635 268.2 5.89132 267.725 5.89132C267.25 5.89132 266.865 6.27635 266.865 6.7514L266.865 15.0384C266.865 15.5134 267.25 15.8984 267.725 15.8984Z" fill="#A5A5A5"/>
<path d="M160.207 5.56445C159.732 5.56445 159.347 5.94948 159.347 6.42453V14.7115C159.347 15.1865 159.732 15.5716 160.207 15.5716C160.683 15.5716 161.068 15.1865 161.068 14.7115V6.42453C161.068 5.94948 160.682 5.56445 160.207 5.56445Z" fill="#A5A5A5"/>
<path d="M56.3976 8.74414C55.9225 8.74414 55.5375 9.12917 55.5375 9.60422V12.3829C55.5375 12.858 55.9225 13.243 56.3976 13.243C56.8726 13.243 57.2576 12.858 57.2576 12.3829V9.60422C57.2576 9.12917 56.8726 8.74414 56.3976 8.74414Z" fill="#F4F4F4"/>
<path d="M260.31 8.74414C259.835 8.74414 259.45 9.12917 259.45 9.60422V12.3829C259.45 12.858 259.835 13.243 260.31 13.243C260.785 13.243 261.17 12.858 261.17 12.3829V9.60422C261.17 9.12917 260.785 8.74414 260.31 8.74414Z" fill="#A5A5A5"/>
<path d="M327.058 8.74414C326.583 8.74414 326.198 9.12917 326.198 9.60422V12.3829C326.198 12.858 326.583 13.243 327.058 13.243C327.533 13.243 327.918 12.858 327.918 12.3829V9.60422C327.918 9.12917 327.533 8.74414 327.058 8.74414Z" fill="#A5A5A5"/>
<path d="M264.017 13.5137C264.492 13.5137 264.877 13.1286 264.877 12.6536L264.877 9.87487C264.877 9.39982 264.492 9.0148 264.017 9.0148C263.542 9.0148 263.157 9.39982 263.157 9.87487L263.157 12.6536C263.157 13.1286 263.542 13.5137 264.017 13.5137Z" fill="#A5A5A5"/>
<path d="M163.915 8.74414C163.44 8.74414 163.055 9.12917 163.055 9.60422V12.3829C163.055 12.858 163.44 13.243 163.915 13.243C164.39 13.243 164.775 12.858 164.775 12.3829V9.60422C164.775 9.12917 164.39 8.74414 163.915 8.74414Z" fill="#A5A5A5"/>
<path d="M112.01 8.74414C111.535 8.74414 111.15 9.12917 111.15 9.60422V12.3829C111.15 12.858 111.535 13.243 112.01 13.243C112.485 13.243 112.87 12.858 112.87 12.3829V9.60422C112.87 9.12917 112.485 8.74414 112.01 8.74414Z" fill="#F4F4F4"/>
<path d="M219.527 8.74414C219.052 8.74414 218.667 9.12917 218.667 9.60422V12.3829C218.667 12.858 219.052 13.243 219.527 13.243C220.002 13.243 220.387 12.858 220.387 12.3829V9.60422C220.387 9.12917 220.002 8.74414 219.527 8.74414Z" fill="#A5A5A5"/>
<path d="M286.275 8.74414C285.8 8.74414 285.415 9.12917 285.415 9.60422V12.3829C285.415 12.858 285.8 13.243 286.275 13.243C286.75 13.243 287.135 12.858 287.135 12.3829V9.60422C287.135 9.12917 286.75 8.74414 286.275 8.74414Z" fill="#A5A5A5"/>
<path d="M115.717 8.74414C115.242 8.74414 114.857 9.12917 114.857 9.60422V12.3829C114.857 12.858 115.242 13.243 115.717 13.243C116.193 13.243 116.578 12.858 116.578 12.3829V9.60422C116.578 9.12917 116.193 8.74414 115.717 8.74414Z" fill="#F4F4F4"/>
<path d="M223.235 8.74414C222.76 8.74414 222.375 9.12917 222.375 9.60422V12.3829C222.375 12.858 222.76 13.243 223.235 13.243C223.71 13.243 224.095 12.858 224.095 12.3829V9.60422C224.095 9.12917 223.71 8.74414 223.235 8.74414Z" fill="#A5A5A5"/>
<path d="M289.983 8.74414C289.508 8.74414 289.123 9.12917 289.123 9.60422V12.3829C289.123 12.858 289.508 13.243 289.983 13.243C290.458 13.243 290.843 12.858 290.843 12.3829V9.60422C290.843 9.12917 290.458 8.74414 289.983 8.74414Z" fill="#A5A5A5"/>
<path d="M119.425 8.74414C118.95 8.74414 118.565 9.12917 118.565 9.60422V12.3829C118.565 12.858 118.95 13.243 119.425 13.243C119.9 13.243 120.285 12.858 120.285 12.3829V9.60422C120.285 9.12917 119.9 8.74414 119.425 8.74414Z" fill="#F4F4F4"/>
<path d="M226.942 8.74414C226.467 8.74414 226.082 9.12917 226.082 9.60422V12.3829C226.082 12.858 226.467 13.243 226.942 13.243C227.417 13.243 227.802 12.858 227.802 12.3829V9.60422C227.802 9.12917 227.417 8.74414 226.942 8.74414Z" fill="#A5A5A5"/>
<path d="M293.69 8.74414C293.215 8.74414 292.83 9.12917 292.83 9.60422V12.3829C292.83 12.858 293.215 13.243 293.69 13.243C294.165 13.243 294.55 12.858 294.55 12.3829V9.60422C294.55 9.12917 294.165 8.74414 293.69 8.74414Z" fill="#A5A5A5"/>
<path d="M123.133 8.74414C122.657 8.74414 122.272 9.12917 122.272 9.60422V12.3829C122.272 12.858 122.657 13.243 123.133 13.243C123.608 13.243 123.993 12.858 123.993 12.3829V9.60422C123.993 9.12917 123.608 8.74414 123.133 8.74414Z" fill="#F4F4F4"/>
<path d="M230.65 8.74414C230.175 8.74414 229.79 9.12917 229.79 9.60422V12.3829C229.79 12.858 230.175 13.243 230.65 13.243C231.125 13.243 231.51 12.858 231.51 12.3829V9.60422C231.51 9.12917 231.125 8.74414 230.65 8.74414Z" fill="#A5A5A5"/>
<path d="M297.398 8.74414C296.923 8.74414 296.538 9.12917 296.538 9.60422V12.3829C296.538 12.858 296.923 13.243 297.398 13.243C297.873 13.243 298.258 12.858 298.258 12.3829V9.60422C298.258 9.12917 297.873 8.74414 297.398 8.74414Z" fill="#A5A5A5"/>
<path d="M60.1051 5.56445C59.63 5.56445 59.245 5.94948 59.245 6.42453V14.7115C59.245 15.1865 59.63 15.5716 60.1051 15.5716C60.5801 15.5716 60.9652 15.1865 60.9652 14.7115V6.42453C60.9652 5.94948 60.5801 5.56445 60.1051 5.56445Z" fill="#F4F4F4"/>
<path d="M167.622 5.56445C167.147 5.56445 166.762 5.94948 166.762 6.42453V14.7115C166.762 15.1865 167.147 15.5716 167.622 15.5716C168.097 15.5716 168.482 15.1865 168.482 14.7115V6.42453C168.482 5.94948 168.097 5.56445 167.622 5.56445Z" fill="#A5A5A5"/>
<path d="M63.8125 3.17969C63.3374 3.17969 62.9524 3.56472 62.9524 4.03977V17.2974C62.9524 17.7725 63.3374 18.1575 63.8125 18.1575C64.2875 18.1575 64.6726 17.7725 64.6726 17.2974V4.03977C64.6726 3.56472 64.2875 3.17969 63.8125 3.17969Z" fill="#F4F4F4"/>
<path d="M171.33 3.17969C170.855 3.17969 170.47 3.56472 170.47 4.03977V17.2974C170.47 17.7725 170.855 18.1575 171.33 18.1575C171.805 18.1575 172.19 17.7725 172.19 17.2974V4.03977C172.19 3.56472 171.805 3.17969 171.33 3.17969Z" fill="#A5A5A5"/>
<path d="M89.765 3.17969C89.2899 3.17969 88.9049 3.56472 88.9049 4.03977V17.2974C88.9049 17.7725 89.2899 18.1575 89.765 18.1575C90.24 18.1575 90.6251 17.7725 90.6251 17.2974V4.03977C90.6251 3.56472 90.24 3.17969 89.765 3.17969Z" fill="#F4F4F4"/>
<path d="M197.282 3.17969C196.807 3.17969 196.422 3.56472 196.422 4.03977V17.2974C196.422 17.7725 196.807 18.1575 197.282 18.1575C197.757 18.1575 198.143 17.7725 198.143 17.2974V4.03977C198.143 3.56472 197.757 3.17969 197.282 3.17969Z" fill="#A5A5A5"/>
<path d="M97.18 18.2832C97.655 18.2832 98.04 17.8982 98.04 17.4231L98.04 4.16549C98.04 3.69044 97.655 3.30541 97.18 3.30541C96.7049 3.30541 96.3199 3.69044 96.3199 4.16549L96.3199 17.4231C96.3199 17.8982 96.7049 18.2832 97.18 18.2832Z" fill="#F4F4F4"/>
<path d="M204.697 18.2832C205.172 18.2832 205.557 17.8982 205.557 17.4231L205.557 4.16549C205.557 3.69044 205.172 3.30541 204.697 3.30541C204.222 3.30541 203.837 3.69044 203.837 4.16549L203.837 17.4231C203.837 17.8982 204.222 18.2832 204.697 18.2832Z" fill="#A5A5A5"/>
<path d="M137.962 3.17969C137.487 3.17969 137.102 3.56472 137.102 4.03977L137.102 17.2974C137.102 17.7725 137.487 18.1575 137.962 18.1575C138.438 18.1575 138.823 17.7725 138.823 17.2974L138.823 4.03977C138.823 3.56472 138.438 3.17969 137.962 3.17969Z" fill="#F4F4F4"/>
<path d="M245.48 3.17969C245.005 3.17969 244.62 3.56472 244.62 4.03977L244.62 17.2974C244.62 17.7725 245.005 18.1575 245.48 18.1575C245.955 18.1575 246.34 17.7725 246.34 17.2974L246.34 4.03977C246.34 3.56472 245.955 3.17969 245.48 3.17969Z" fill="#A5A5A5"/>
<path d="M312.228 3.17969C311.753 3.17969 311.368 3.56472 311.368 4.03977L311.368 17.2974C311.368 17.7725 311.753 18.1575 312.228 18.1575C312.703 18.1575 313.088 17.7725 313.088 17.2974L313.088 4.03977C313.088 3.56472 312.703 3.17969 312.228 3.17969Z" fill="#A5A5A5"/>
<path d="M67.52 0C67.0449 0 66.6599 0.385029 66.6599 0.860079V21.0357C66.6599 21.5108 67.0449 21.8958 67.52 21.8958C67.995 21.8958 68.3801 21.5108 68.3801 21.0357V0.860079C68.3801 0.385124 67.995 0 67.52 0Z" fill="#F4F4F4"/>
<path d="M175.037 0C174.562 0 174.177 0.385029 174.177 0.860079V21.0357C174.177 21.5108 174.562 21.8958 175.037 21.8958C175.512 21.8958 175.897 21.5108 175.897 21.0357V0.860079C175.897 0.385124 175.512 0 175.037 0Z" fill="#A5A5A5"/>
<path d="M93.4725 0C92.9975 0 92.6124 0.385029 92.6124 0.860079V21.0357C92.6124 21.5108 92.9975 21.8958 93.4725 21.8958C93.9476 21.8958 94.3326 21.5108 94.3326 21.0357V0.860079C94.3326 0.385124 93.9476 0 93.4725 0Z" fill="#F4F4F4"/>
<path d="M200.99 0C200.515 0 200.13 0.385029 200.13 0.860079V21.0357C200.13 21.5108 200.515 21.8958 200.99 21.8958C201.465 21.8958 201.85 21.5108 201.85 21.0357V0.860079C201.85 0.385124 201.465 0 200.99 0Z" fill="#A5A5A5"/>
<path d="M141.67 21.8955C142.145 21.8955 142.53 21.5105 142.53 21.0354L142.53 0.859797C142.53 0.384747 142.145 -0.000282321 141.67 -0.000282363C141.195 -0.000282404 140.81 0.384746 140.81 0.859796L140.81 21.0354C140.81 21.5104 141.195 21.8955 141.67 21.8955Z" fill="#A5A5A5"/>
<path d="M249.187 21.8955C249.662 21.8955 250.047 21.5105 250.047 21.0354L250.047 0.859797C250.047 0.384747 249.662 -0.000282321 249.187 -0.000282363C248.712 -0.000282404 248.327 0.384746 248.327 0.859796L248.327 21.0354C248.327 21.5104 248.712 21.8955 249.187 21.8955Z" fill="#A5A5A5"/>
<path d="M315.935 21.8955C316.41 21.8955 316.795 21.5105 316.795 21.0354L316.795 0.859797C316.795 0.384747 316.41 -0.000282321 315.935 -0.000282363C315.46 -0.000282404 315.075 0.384746 315.075 0.859796L315.075 21.0354C315.075 21.5104 315.46 21.8955 315.935 21.8955Z" fill="#A5A5A5"/>
<path d="M275.14 21.8955C275.615 21.8955 276 21.5105 276 21.0354L276 0.859797C276 0.384747 275.615 -0.000282321 275.14 -0.000282363C274.665 -0.000282404 274.28 0.384746 274.28 0.859796L274.28 21.0354C274.28 21.5104 274.665 21.8955 275.14 21.8955Z" fill="#A5A5A5"/>
<path d="M71.2275 4.76953C70.7525 4.76953 70.3674 5.15456 70.3674 5.62961V15.7779C70.3674 16.2529 70.7525 16.638 71.2275 16.638C71.7026 16.638 72.0876 16.2529 72.0876 15.7779V5.62961C72.0876 5.15456 71.7026 4.76953 71.2275 4.76953Z" fill="#F4F4F4"/>
<path d="M178.745 4.76953C178.27 4.76953 177.885 5.15456 177.885 5.62961V15.7779C177.885 16.2529 178.27 16.638 178.745 16.638C179.22 16.638 179.605 16.2529 179.605 15.7779V5.62961C179.605 5.15456 179.22 4.76953 178.745 4.76953Z" fill="#A5A5A5"/>
<path d="M74.935 5.56445C74.46 5.56445 74.075 5.94948 74.075 6.42453V14.7115C74.075 15.1865 74.46 15.5716 74.935 15.5716C75.4101 15.5716 75.7951 15.1865 75.7951 14.7115V6.42453C75.7951 5.94948 75.41 5.56445 74.935 5.56445Z" fill="#F4F4F4"/>
<path d="M182.452 5.56445C181.977 5.56445 181.592 5.94948 181.592 6.42453V14.7115C181.592 15.1865 181.977 15.5716 182.452 15.5716C182.927 15.5716 183.312 15.1865 183.312 14.7115V6.42453C183.312 5.94948 182.927 5.56445 182.452 5.56445Z" fill="#A5A5A5"/>
<path d="M78.6425 5.56445C78.1675 5.56445 77.7825 5.94948 77.7825 6.42453V14.7115C77.7825 15.1865 78.1675 15.5716 78.6425 15.5716C79.1176 15.5716 79.5026 15.1865 79.5026 14.7115V6.42453C79.5026 5.94948 79.1175 5.56445 78.6425 5.56445Z" fill="#F4F4F4"/>
<path d="M186.16 5.56445C185.685 5.56445 185.3 5.94948 185.3 6.42453V14.7115C185.3 15.1865 185.685 15.5716 186.16 15.5716C186.635 15.5716 187.02 15.1865 187.02 14.7115V6.42453C187.02 5.94948 186.635 5.56445 186.16 5.56445Z" fill="#A5A5A5"/>
<path d="M108.303 15.8984C108.778 15.8984 109.163 15.5134 109.163 15.0384L109.163 6.7514C109.163 6.27635 108.778 5.89132 108.303 5.89132C107.827 5.89132 107.442 6.27635 107.442 6.7514L107.442 15.0384C107.442 15.5134 107.828 15.8984 108.303 15.8984Z" fill="#F4F4F4"/>
<path d="M215.82 15.8984C216.295 15.8984 216.68 15.5134 216.68 15.0384L216.68 6.7514C216.68 6.27635 216.295 5.89132 215.82 5.89132C215.345 5.89132 214.96 6.27635 214.96 6.7514L214.96 15.0384C214.96 15.5134 215.345 15.8984 215.82 15.8984Z" fill="#A5A5A5"/>
<path d="M282.568 15.8984C283.043 15.8984 283.428 15.5134 283.428 15.0384L283.428 6.7514C283.428 6.27635 283.043 5.89132 282.568 5.89132C282.093 5.89132 281.708 6.27635 281.708 6.7514L281.708 15.0384C281.708 15.5134 282.093 15.8984 282.568 15.8984Z" fill="#A5A5A5"/>
<path d="M126.84 5.56445C126.365 5.56445 125.98 5.94948 125.98 6.42453L125.98 14.7115C125.98 15.1865 126.365 15.5716 126.84 15.5716C127.315 15.5716 127.7 15.1865 127.7 14.7115L127.7 6.42453C127.7 5.94948 127.315 5.56445 126.84 5.56445Z" fill="#F4F4F4"/>
<path d="M234.357 5.56445C233.882 5.56445 233.497 5.94948 233.497 6.42453L233.497 14.7115C233.497 15.1865 233.882 15.5716 234.357 15.5716C234.832 15.5716 235.217 15.1865 235.217 14.7115L235.217 6.42453C235.217 5.94948 234.832 5.56445 234.357 5.56445Z" fill="#A5A5A5"/>
<path d="M301.105 5.56445C300.63 5.56445 300.245 5.94948 300.245 6.42453L300.245 14.7115C300.245 15.1865 300.63 15.5716 301.105 15.5716C301.58 15.5716 301.965 15.1865 301.965 14.7115L301.965 6.42453C301.965 5.94948 301.58 5.56445 301.105 5.56445Z" fill="#A5A5A5"/>
<path d="M82.3501 5.56445C81.875 5.56445 81.49 5.94948 81.49 6.42453V14.7115C81.49 15.1865 81.875 15.5716 82.3501 15.5716C82.8251 15.5716 83.2101 15.1865 83.2101 14.7115V6.42453C83.2101 5.94948 82.825 5.56445 82.3501 5.56445Z" fill="#F4F4F4"/>
<path d="M189.867 5.56445C189.392 5.56445 189.007 5.94948 189.007 6.42453V14.7115C189.007 15.1865 189.392 15.5716 189.867 15.5716C190.342 15.5716 190.727 15.1865 190.727 14.7115V6.42453C190.727 5.94948 190.342 5.56445 189.867 5.56445Z" fill="#A5A5A5"/>
<path d="M104.595 15.8984C105.07 15.8984 105.455 15.5134 105.455 15.0384L105.455 6.7514C105.455 6.27635 105.07 5.89132 104.595 5.89132C104.12 5.89132 103.735 6.27635 103.735 6.7514L103.735 15.0384C103.735 15.5134 104.12 15.8984 104.595 15.8984Z" fill="#F4F4F4"/>
<path d="M212.112 15.8984C212.587 15.8984 212.972 15.5134 212.972 15.0384L212.972 6.7514C212.972 6.27635 212.587 5.89132 212.112 5.89132C211.637 5.89132 211.252 6.27635 211.252 6.7514L211.252 15.0384C211.252 15.5134 211.637 15.8984 212.112 15.8984Z" fill="#A5A5A5"/>
<path d="M278.86 15.8984C279.335 15.8984 279.72 15.5134 279.72 15.0384L279.72 6.7514C279.72 6.27635 279.335 5.89132 278.86 5.89132C278.385 5.89132 278 6.27635 278 6.7514L278 15.0384C278 15.5134 278.385 15.8984 278.86 15.8984Z" fill="#A5A5A5"/>
<path d="M130.547 5.56445C130.072 5.56445 129.687 5.94948 129.687 6.42453L129.687 14.7115C129.687 15.1865 130.072 15.5716 130.547 15.5716C131.023 15.5716 131.408 15.1865 131.408 14.7115L131.408 6.42453C131.408 5.94948 131.022 5.56445 130.547 5.56445Z" fill="#F4F4F4"/>
<path d="M238.065 5.56445C237.59 5.56445 237.205 5.94948 237.205 6.42453L237.205 14.7115C237.205 15.1865 237.59 15.5716 238.065 15.5716C238.54 15.5716 238.925 15.1865 238.925 14.7115L238.925 6.42453C238.925 5.94948 238.54 5.56445 238.065 5.56445Z" fill="#A5A5A5"/>
<path d="M304.813 5.56445C304.338 5.56445 303.953 5.94948 303.953 6.42453L303.953 14.7115C303.953 15.1865 304.338 15.5716 304.813 15.5716C305.288 15.5716 305.673 15.1865 305.673 14.7115L305.673 6.42453C305.673 5.94948 305.288 5.56445 304.813 5.56445Z" fill="#A5A5A5"/>
<path d="M86.0576 5.56445C85.5825 5.56445 85.1975 5.94948 85.1975 6.42453V14.7115C85.1975 15.1865 85.5825 15.5716 86.0576 15.5716C86.5326 15.5716 86.9177 15.1865 86.9177 14.7115V6.42453C86.9177 5.94948 86.5325 5.56445 86.0576 5.56445Z" fill="#F4F4F4"/>
<path d="M193.575 5.56445C193.1 5.56445 192.715 5.94948 192.715 6.42453V14.7115C192.715 15.1865 193.1 15.5716 193.575 15.5716C194.05 15.5716 194.435 15.1865 194.435 14.7115V6.42453C194.435 5.94948 194.05 5.56445 193.575 5.56445Z" fill="#A5A5A5"/>
<path d="M100.887 15.8984C101.363 15.8984 101.748 15.5134 101.748 15.0384L101.748 6.7514C101.748 6.27635 101.363 5.89132 100.887 5.89132C100.412 5.89132 100.027 6.27635 100.027 6.7514L100.027 15.0384C100.027 15.5134 100.413 15.8984 100.887 15.8984Z" fill="#F4F4F4"/>
<path d="M208.405 15.8984C208.88 15.8984 209.265 15.5134 209.265 15.0384L209.265 6.7514C209.265 6.27635 208.88 5.89132 208.405 5.89132C207.93 5.89132 207.545 6.27635 207.545 6.7514L207.545 15.0384C207.545 15.5134 207.93 15.8984 208.405 15.8984Z" fill="#A5A5A5"/>
<path d="M134.255 5.56445C133.78 5.56445 133.395 5.94948 133.395 6.42453L133.395 14.7115C133.395 15.1865 133.78 15.5716 134.255 15.5716C134.73 15.5716 135.115 15.1865 135.115 14.7115L135.115 6.42453C135.115 5.94948 134.73 5.56445 134.255 5.56445Z" fill="#F4F4F4"/>
<path d="M241.772 5.56445C241.297 5.56445 240.912 5.94948 240.912 6.42453L240.912 14.7115C240.912 15.1865 241.297 15.5716 241.772 15.5716C242.247 15.5716 242.633 15.1865 242.633 14.7115L242.633 6.42453C242.633 5.94948 242.247 5.56445 241.772 5.56445Z" fill="#A5A5A5"/>
<path d="M308.52 5.56445C308.045 5.56445 307.66 5.94948 307.66 6.42453L307.66 14.7115C307.66 15.1865 308.045 15.5716 308.52 15.5716C308.995 15.5716 309.38 15.1865 309.38 14.7115L309.38 6.42453C309.38 5.94948 308.995 5.56445 308.52 5.56445Z" fill="#A5A5A5"/>
<path d="M11.0066 17.5962C11.0066 17.9838 10.7827 18.3359 10.4323 18.5002C10.2968 18.5643 10.1516 18.5953 10.0073 18.5953C9.77891 18.5953 9.55261 18.5167 9.36983 18.3652L3.90802 13.8393H0.999054C0.447387 13.8398 0 13.3921 0 12.8405V8.86009C0 8.30819 0.447387 7.8608 0.999054 7.8608H3.90825L9.37006 3.33491C9.66848 3.08757 10.0823 3.03483 10.4325 3.20036C10.7827 3.3647 11.0069 3.71703 11.0069 4.10436L11.0066 17.5962ZM14.8461 16.0351C14.8217 16.0367 14.7983 16.0377 14.7742 16.0377C14.5103 16.0377 14.2559 15.9334 14.0679 15.7452L13.9343 15.6111C13.5838 15.2614 13.5427 14.7073 13.8378 14.3096C14.586 13.3009 14.9808 12.1051 14.9808 10.8506C14.9808 9.50138 14.5325 8.23583 13.6841 7.19066C13.3611 6.79341 13.3909 6.21644 13.7529 5.85465L13.8863 5.72105C14.0858 5.52147 14.3533 5.4127 14.6427 5.42996C14.9246 5.44415 15.1878 5.57681 15.3665 5.7953C16.5434 7.23536 17.1651 8.98376 17.1651 10.8509C17.1651 12.5898 16.6153 14.2451 15.5748 15.6369C15.401 15.8688 15.1353 16.0145 14.8461 16.0351ZM18.9766 19.1226C18.7959 19.3361 18.5346 19.4643 18.2549 19.4761C18.2412 19.4765 18.2272 19.477 18.2131 19.477C17.9485 19.477 17.6945 19.3725 17.5065 19.1845L17.3753 19.0533C17.0085 18.6868 16.9837 18.1006 17.3171 17.7038C18.9284 15.7875 19.816 13.3538 19.816 10.8506C19.816 8.24694 18.8657 5.74044 17.1407 3.79293C16.791 3.39757 16.8087 2.79908 17.1809 2.42547L17.3119 2.29423C17.5063 2.09892 17.7588 1.99133 18.0485 2.00055C18.3235 2.00835 18.5836 2.12989 18.7664 2.33562C20.8515 4.68322 22 7.70757 22 10.8506C22.0005 13.8748 20.9267 16.8126 18.9766 19.1226Z" fill="#F4F4F4"/>
</svg>
