<svg width="18" height="17" viewBox="0 0 18 17" fill="none" xmlns="http://www.w3.org/2000/svg">
<path d="M1.23882 4.95526H13.627C14.3083 4.95526 14.8658 5.51273 14.8658 6.19408C14.8658 6.87543 14.3083 7.4329 13.627 7.4329H1.23882C0.557467 7.4329 0 6.87543 0 6.19408C0 5.51273 0.557467 4.95526 1.23882 4.95526ZM1.23882 0H13.627C14.3083 0 14.8658 0.557467 14.8658 1.23882C14.8658 1.92017 14.3083 2.47763 13.627 2.47763H1.23882C0.557467 2.47763 0 1.92017 0 1.23882C0 0.557467 0.557467 0 1.23882 0ZM1.23882 9.91053H8.67171C9.35306 9.91053 9.91053 10.468 9.91053 11.1493C9.91053 11.8307 9.35306 12.3882 8.67171 12.3882H1.23882C0.557467 12.3882 0 11.8307 0 11.1493C0 10.468 0.557467 9.91053 1.23882 9.91053ZM12.3882 11.0007V16.2409C12.3882 16.724 12.9085 17.0213 13.3297 16.7736L17.7027 14.1473C18.0991 13.9119 18.0991 13.3297 17.7027 13.0819L13.3297 10.4556C12.9085 10.2202 12.3882 10.5175 12.3882 11.0007Z" fill="white"/>
</svg>
