<svg width="25" height="25" viewBox="0 0 25 25" fill="none" xmlns="http://www.w3.org/2000/svg">
<path d="M19.4674 12.0256L21.0609 12.0256C21.3514 12.0256 21.5869 11.7901 21.5869 11.4996C21.5869 11.2091 21.3514 10.9736 21.0609 10.9736L19.4674 10.9736C19.1769 10.9736 18.9414 11.2091 18.9414 11.4996C18.9414 11.79 19.1769 12.0256 19.4674 12.0256Z" fill="#B2B2B2"/>
<path d="M19.4412 15.51L18.6444 14.7132C18.439 14.5078 18.1059 14.5078 17.9005 14.7132C17.6951 14.9186 17.6951 15.2517 17.9005 15.4571L18.6973 16.2539C18.9027 16.4593 19.2358 16.4593 19.4412 16.2539C19.6466 16.0485 19.6466 15.7154 19.4412 15.51Z" fill="#B2B2B2"/>
<path d="M17.9002 8.28608C18.1056 8.49148 18.4386 8.49148 18.644 8.28608L19.4408 7.48933C19.6462 7.28392 19.6462 6.95087 19.4408 6.74547C19.2354 6.54006 18.9023 6.54006 18.6969 6.74547L17.9002 7.54221C17.6948 7.74762 17.6948 8.08067 17.9002 8.28608Z" fill="#B2B2B2"/>
<path d="M3.53305 9.38005C3.24282 9.38002 3.00704 9.61556 3.00706 9.90603L3.00706 13.0931C3.00704 13.3835 3.24249 13.6191 3.53305 13.6191L4.77953 13.6191L4.77954 9.38012L3.53305 9.38005Z" fill="#B2B2B2"/>
<path d="M9.67119 16.1199L5.83057 14.7373L5.83057 18.308C5.83054 18.5984 6.06603 18.834 6.35655 18.834L9.14519 18.834C9.43569 18.834 9.67117 18.5985 9.67117 18.308L9.67119 16.1199Z" fill="#B2B2B2"/>
<path d="M16.4073 6.3205C16.4073 6.14921 16.3239 5.98866 16.1838 5.89015C16.0436 5.79166 15.8643 5.76758 15.7032 5.82561L5.83007 9.37989L5.83004 13.6189L15.7032 17.1732C15.8643 17.2312 16.0437 17.2071 16.1838 17.1086C16.3239 17.0101 16.4073 16.8496 16.4073 16.6783L16.4073 6.3205Z" fill="#B2B2B2"/>
</svg>
