<svg width="21" height="20" viewBox="0 0 21 20" fill="none" xmlns="http://www.w3.org/2000/svg">
<path fill-rule="evenodd" clip-rule="evenodd" d="M17.678 16.5554C19.3465 14.7971 20.3654 12.4502 20.3654 9.87263C20.3654 4.42013 15.8064 0 10.1827 0C4.55895 0 0 4.42013 0 9.87263C0 15.3251 4.55895 19.7453 10.1827 19.7453C12.3311 19.7453 14.324 19.1002 15.9668 17.999L17.6993 19.6787C18.1411 20.1071 18.8575 20.1071 19.2993 19.6787C19.7412 19.2503 19.7412 18.5557 19.2993 18.1273L17.678 16.5554ZM10.1827 17.5514C5.8087 17.5514 2.26286 14.1135 2.26286 9.87268C2.26286 5.63184 5.8087 2.19396 10.1827 2.19396C14.5567 2.19396 18.1026 5.63184 18.1026 9.87268C18.1026 14.1135 14.5567 17.5514 10.1827 17.5514Z" fill="#4B4B4A"/>
</svg>
