<svg width="29" height="20" viewBox="0 0 29 20" fill="none" xmlns="http://www.w3.org/2000/svg">
<path d="M1.45 2.85714H15.95C16.7556 2.85714 17.4 2.22222 17.4 1.42857C17.4 0.634921 16.7556 0 15.95 0H1.45C0.644444 0 0 0.634921 0 1.42857C0 2.22222 0.644444 2.85714 1.45 2.85714Z" fill="#A5A5A5"/>
<path d="M1.45 8.57144H15.95C16.7556 8.57144 17.4 7.93652 17.4 7.14287C17.4 6.34922 16.7556 5.71429 15.95 5.71429H1.45C0.644444 5.71429 0 6.34922 0 7.14287C0 7.93652 0.644444 8.57144 1.45 8.57144Z" fill="#A5A5A5"/>
<path d="M27.55 11.4286H23.2V7.14287C23.2 6.34922 22.5556 5.71429 21.75 5.71429C20.9444 5.71429 20.3 6.34922 20.3 7.14287V11.4286H15.95C15.1444 11.4286 14.5 12.0635 14.5 12.8572C14.5 13.6508 15.1444 14.2857 15.95 14.2857H20.3V18.5714C20.3 19.3651 20.9444 20 21.75 20C22.5556 20 23.2 19.3651 23.2 18.5714V14.2857H27.55C28.3556 14.2857 29 13.6508 29 12.8572C29 12.0635 28.3556 11.4286 27.55 11.4286Z" fill="#A5A5A5"/>
<path d="M10.15 11.4286H1.45C0.644444 11.4286 0 12.0635 0 12.8572C0 13.6508 0.644444 14.2857 1.45 14.2857H10.15C10.9556 14.2857 11.6 13.6508 11.6 12.8572C11.6 12.0635 10.9556 11.4286 10.15 11.4286Z" fill="#A5A5A5"/>
</svg>
