<svg width="21" height="19" viewBox="0 0 21 19" fill="none" xmlns="http://www.w3.org/2000/svg">
<path d="M17.1417 11.4277C15.9737 11.4277 14.9439 11.9911 14.2782 12.8498L7.24435 10.1445C7.25146 10.0521 7.27221 9.96359 7.27221 9.86946C7.27221 9.69468 7.24454 9.52736 7.22059 9.35915L14.4283 6.03211C15.0951 6.7863 16.0584 7.27225 17.1416 7.27225C19.1464 7.27225 20.7777 5.64087 20.7777 3.63613C20.7777 1.63138 19.1464 0 17.1416 0C15.1369 0 13.5055 1.63133 13.5055 3.63608C13.5055 3.81086 13.5332 3.97818 13.5572 4.14638L6.34943 7.47343C5.68261 6.71924 4.71936 6.23328 3.63613 6.23328C1.63138 6.23328 0 7.86466 0 9.86941C0 11.8742 1.63138 13.5055 3.63613 13.5055C4.80405 13.5055 5.83386 12.9422 6.49961 12.0835L13.5334 14.7888C13.5263 14.8812 13.5056 14.9697 13.5056 15.0638C13.5056 17.0686 15.137 18.7 17.1417 18.7C19.1465 18.7 20.7778 17.0686 20.7778 15.0638C20.7778 13.0591 19.1464 11.4277 17.1417 11.4277Z" fill="#B2B2B2"/>
</svg>
