<svg width="13" height="20" viewBox="0 0 13 20" fill="none" xmlns="http://www.w3.org/2000/svg">
<path d="M11.9737 5.05611H9.83894V3.34263C9.83898 1.49661 8.34241 0 6.49627 0C6.48336 0 6.4319 0 6.41895 0C4.57289 0 3.07624 1.49661 3.07624 3.34263V5.05611H0.941529C0.476009 5.05611 0 5.42637 0 5.89177C0 5.94565 0.0155694 9.67518 0.0157332 9.71914C0.0157332 12.9912 2.43355 15.7087 5.57641 16.18V18.3146H3.24483C2.77948 18.3146 2.40209 18.6918 2.40209 19.1573C2.40209 19.6227 2.77948 20 3.24483 20H9.67042C10.1358 20 10.5131 19.6227 10.5131 19.1573C10.5131 18.6918 10.1358 18.3146 9.67042 18.3146H7.33893V16.18C10.4817 15.7087 12.8996 12.9911 12.8996 9.71914C12.8996 9.67837 12.9154 5.94565 12.9154 5.89177C12.9153 5.42637 12.4393 5.05611 11.9737 5.05611ZM11.2142 9.71914C11.2142 12.3618 9.08867 14.5159 6.45759 14.5652C3.82651 14.5159 1.70106 12.3618 1.70106 9.71914C1.70106 9.70894 1.69459 7.80142 1.69111 6.74152H3.07624V10.1967C3.07624 12.0426 4.57289 13.5392 6.41895 13.5392C6.43186 13.5392 6.48332 13.5392 6.49627 13.5392C8.34241 13.5392 9.83894 12.0426 9.83894 10.1967V6.74152H11.2242C11.2206 7.80146 11.2142 9.70894 11.2142 9.71914Z" fill="#FF005A"/>
</svg>
