<svg width="21" height="20" viewBox="0 0 21 20" fill="none" xmlns="http://www.w3.org/2000/svg">
<rect width="20.8697" height="20" fill="#181818"/>
<path d="M2.17391 8.69562C0.975657 8.69562 0 9.67128 0 10.8695V17.8261C0 19.0244 0.975657 20 2.17391 20H4.78262C5.2722 20 5.72261 19.8348 6.08697 19.56V8.69562H2.17391Z" fill="#59A6F8"/>
<path d="M20.8701 11.9566C20.8701 11.434 20.6632 10.947 20.304 10.5879C20.7101 10.1435 20.9171 9.54783 20.8606 8.92786C20.7588 7.82262 19.7631 6.95653 18.5927 6.95653H13.2214C13.4875 6.14868 13.9136 4.66784 13.9136 3.47826C13.9136 1.59217 12.311 0 11.3049 0C10.4014 0 9.75613 0.508698 9.72834 0.529568C9.62574 0.61219 9.56574 0.737409 9.56574 0.869556V3.81825L7.06138 9.24351L6.95703 9.29654V18.6166C7.66485 18.9505 8.56049 19.1305 9.13094 19.1305H17.1127C18.0597 19.1305 18.8884 18.4922 19.0832 17.6114C19.1832 17.1583 19.1249 16.7018 18.9258 16.3053C19.5684 15.9818 20.0006 15.32 20.0006 14.5653C20.0006 14.2574 19.9301 13.9627 19.7962 13.6957C20.4388 13.3722 20.8701 12.7105 20.8701 11.9566Z" fill="#59A6F8"/>
</svg>
