<svg width="22" height="20" viewBox="0 0 22 20" fill="none" xmlns="http://www.w3.org/2000/svg">
<rect width="20.8697" height="20" transform="translate(21.8691 20) rotate(-180)" fill="#181818"/>
<path d="M19.6952 11.3044C20.8935 11.3044 21.8691 10.3287 21.8691 9.13047L21.8691 2.1739C21.8691 0.975649 20.8935 -8.66836e-06 19.6952 -8.77312e-06L17.0865 -9.00118e-06C16.5969 -9.04398e-06 16.1465 0.165196 15.7822 0.440008L15.7822 11.3044L19.6952 11.3044Z" fill="#A5A5A5"/>
<path d="M0.999012 8.04343C0.999012 8.56603 1.20596 9.053 1.5651 9.41215C1.159 9.85649 0.952055 10.4522 1.00859 11.0721C1.11033 12.1774 2.106 13.0435 3.27641 13.0435L8.64775 13.0435C8.38166 13.8513 7.95558 15.3322 7.95558 16.5217C7.95558 18.4078 9.55818 20 10.5643 20C11.4678 20 12.113 19.4913 12.1408 19.4704C12.2434 19.3878 12.3034 19.2626 12.3034 19.1304L12.3034 16.1817L14.8078 10.7565L14.9121 10.7035L14.9121 1.3834C14.2043 1.04949 13.3087 0.869486 12.7382 0.869486L4.75641 0.869485C3.80945 0.869485 2.98074 1.50776 2.78598 2.38861C2.68599 2.84167 2.74424 3.29819 2.94336 3.69472C2.30076 4.0182 1.86857 4.67995 1.86857 5.43472C1.86857 5.74255 1.939 6.03734 2.0729 6.30428C1.43031 6.62776 0.999012 7.28952 0.999012 8.04343Z" fill="#A5A5A5"/>
</svg>
