<svg width="18" height="18" viewBox="0 0 18 18" fill="none" xmlns="http://www.w3.org/2000/svg">
<path fill-rule="evenodd" clip-rule="evenodd" d="M15.6247 14.8999C17.0995 13.3175 18 11.2052 18 8.88536C18 3.97811 13.9706 0 9 0C4.02944 0 0 3.97811 0 8.88536C0 13.7926 4.02944 17.7707 9 17.7707C10.8988 17.7707 12.6603 17.1902 14.1122 16.1991L15.6434 17.7108C16.034 18.0964 16.6671 18.0964 17.0577 17.7108C17.4482 17.3253 17.4482 16.7002 17.0577 16.3146L15.6247 14.8999ZM9 15.7962C5.13401 15.7962 2 12.7021 2 8.88536C2 5.06861 5.13401 1.97452 9 1.97452C12.866 1.97452 16 5.06861 16 8.88536C16 12.7021 12.866 15.7962 9 15.7962Z" fill="#A5A5A5"/>
</svg>
