<svg width="11" height="15" viewBox="0 0 11 15" fill="none" xmlns="http://www.w3.org/2000/svg">
<g clip-path="url(#clip0)">
<path d="M5.50585 0C6.71659 0 7.79444 0.755814 8.17834 1.86047C8.57699 2.99419 8.17834 4.28779 7.20384 5.01454C7.07095 5.11628 6.93807 5.20349 6.81995 5.2907C6.65753 5.40698 6.56894 5.55233 6.64277 5.75581C6.73136 5.9593 6.90854 5.98837 7.10048 5.94477C7.8535 5.77035 8.60652 5.59593 9.35954 5.42151C10.1864 5.23256 10.6441 5.49419 10.8508 6.32267C10.8951 6.48256 10.9394 6.64244 10.9689 6.81686C11.0871 7.44186 10.7918 7.92151 10.1569 8.0814C9.4629 8.25581 8.75418 8.4157 8.04545 8.59012C7.2629 8.77907 7.08572 9.30233 7.58773 9.92733C8.34075 10.8721 9.10854 11.8023 9.86156 12.7326C10.3636 13.343 10.2897 13.8953 9.66961 14.4041C9.53673 14.5058 9.40384 14.6221 9.27095 14.7238C8.75418 15.1163 8.17834 15.0581 7.76491 14.5785C7.18907 13.8954 6.61324 13.1831 6.05216 12.5C5.60921 11.9622 5.37297 11.9622 4.91525 12.4855C4.35417 13.1541 3.80787 13.8372 3.24679 14.5204C2.77431 15.0872 2.21323 15.1453 1.6374 14.6948C1.48974 14.5785 1.34209 14.4622 1.20921 14.3459C0.692429 13.9099 0.618603 13.343 1.04679 12.8052C1.78505 11.875 2.55283 10.9448 3.30585 10.0291C3.37968 9.94186 3.4535 9.85465 3.51256 9.76744C3.8374 9.27326 3.66021 8.79361 3.08438 8.63372C2.40518 8.44477 1.69646 8.29942 1.01726 8.125C0.14612 7.93605 -0.134417 7.48547 0.0575296 6.62791C0.0870598 6.51163 0.11659 6.39535 0.14612 6.27907C0.323301 5.53779 0.825315 5.23256 1.57834 5.40698C2.21323 5.55233 2.84813 5.71221 3.46827 5.85756C3.63068 5.90116 3.77834 5.93023 3.94075 5.94477C4.11793 5.97384 4.26558 5.93023 4.33941 5.75581C4.41323 5.5814 4.3837 5.42151 4.22129 5.30523C4.10317 5.21802 3.98505 5.13081 3.86693 5.05814C2.84813 4.34593 2.41995 3.06686 2.80384 1.90407C3.1582 0.784884 4.26558 0 5.50585 0Z" fill="#A5A5A5"/>
</g>
<defs>
<clipPath id="clip0">
<rect width="11" height="15" fill="white"/>
</clipPath>
</defs>
</svg>
