<svg width="18" height="17" viewBox="0 0 18 17" fill="none" xmlns="http://www.w3.org/2000/svg">
<path fill-rule="evenodd" clip-rule="evenodd" d="M10.4604 0.0595008C10.2516 -0.0400992 10.0056 -0.0136992 9.8256 0.131501L3.9888 4.8007H1.2C0.5388 4.8007 0 5.3395 0 6.0007V10.8007C0 11.4631 0.5388 12.0007 1.2 12.0007H3.9888L9.8244 16.6699C9.9336 16.7563 10.0668 16.8007 10.2 16.8007C10.2888 16.8007 10.3776 16.7803 10.4604 16.7407C10.668 16.6411 10.8 16.4311 10.8 16.2007V0.600701C10.8 0.370301 10.668 0.160301 10.4604 0.0595008ZM13.8372 4.15753C13.6008 3.92473 13.2216 3.92833 12.9888 4.16233C12.756 4.39873 12.7584 4.77793 12.9936 5.01193C13.9008 5.90713 14.4 7.11073 14.4 8.40073C14.4 9.69073 13.9008 10.8943 12.9936 11.7895C12.7584 12.0211 12.756 12.4015 12.9888 12.6379C13.1064 12.7567 13.2612 12.8155 13.4148 12.8155C13.5672 12.8155 13.7196 12.7579 13.8372 12.6415C14.9748 11.5219 15.6 10.0147 15.6 8.40073C15.6 6.78673 14.9748 5.27953 13.8372 4.15753ZM14.6808 2.4703C14.9148 2.2351 15.294 2.2327 15.5304 2.4667C17.124 4.0459 18 6.1531 18 8.4007C18 10.6483 17.124 12.7555 15.5304 14.3335C15.4128 14.4499 15.2592 14.5075 15.1068 14.5075C14.9532 14.5075 14.7996 14.4487 14.6808 14.3311C14.448 14.0959 14.4504 13.7155 14.6844 13.4815C16.0488 12.1291 16.8 10.3255 16.8 8.4007C16.8 6.4759 16.0488 4.6711 14.6844 3.3187C14.4504 3.0859 14.448 2.7055 14.6808 2.4703Z" fill="white"/>
</svg>
