<svg width="14" height="14" viewBox="0 0 14 14" fill="none" xmlns="http://www.w3.org/2000/svg">
<path d="M7.00175 0H6.99825C3.13863 0 0 3.1395 0 7C0 8.53125 0.4935 9.9505 1.33263 11.1029L0.46025 13.7034L3.15088 12.8433C4.25775 13.5765 5.57812 14 7.00175 14C10.8614 14 14 10.8596 14 7C14 3.14038 10.8614 0 7.00175 0Z" fill="#4CAF50"/>
<path d="M11.0745 9.88491C10.9056 10.3618 10.2354 10.7573 9.70074 10.8728C9.33499 10.9507 8.85724 11.0128 7.24899 10.346C5.19187 9.49378 3.86712 7.40341 3.76387 7.26778C3.66499 7.13216 2.93262 6.16091 2.93262 5.15641C2.93262 4.15191 3.44274 3.66279 3.64837 3.45279C3.81724 3.28041 4.09637 3.20166 4.36412 3.20166C4.45074 3.20166 4.52862 3.20604 4.59862 3.20954C4.80424 3.21829 4.90749 3.23054 5.04312 3.55516C5.21199 3.96204 5.62324 4.96653 5.67224 5.06978C5.72212 5.17303 5.77199 5.31304 5.70199 5.44866C5.63637 5.58866 5.57862 5.65078 5.47537 5.76978C5.37212 5.88878 5.27412 5.97978 5.17087 6.10753C5.07637 6.21866 4.96962 6.33766 5.08862 6.54328C5.20762 6.74453 5.61887 7.41566 6.22437 7.95466C7.00574 8.65028 7.63924 8.87253 7.86587 8.96703C8.03474 9.03703 8.23599 9.02041 8.35937 8.88916C8.51599 8.72028 8.70937 8.44028 8.90624 8.16466C9.04624 7.96691 9.22299 7.94241 9.40849 8.01241C9.59749 8.07803 10.5976 8.57241 10.8032 8.67478C11.0089 8.77803 11.1445 8.82703 11.1944 8.91366C11.2434 9.00028 11.2434 9.40716 11.0745 9.88491Z" fill="#FAFAFA"/>
</svg>
