<svg width="14" height="7" viewBox="0 0 14 7" fill="none" xmlns="http://www.w3.org/2000/svg">
<path d="M7.35806 0.503736C7.44516 0.502509 7.52995 0.531781 7.59775 0.586482C7.66555 0.641184 7.71209 0.717871 7.72931 0.803267L7.73563 0.868658V6.48803C7.73473 6.57466 7.70321 6.65818 7.64666 6.72381C7.5901 6.78943 7.51216 6.83294 7.42661 6.84663L7.35806 6.85295H6.87395C6.78682 6.85382 6.70209 6.82444 6.6342 6.76982C6.56631 6.7152 6.51946 6.63872 6.50165 6.55342V6.48803V0.868658C6.50252 0.781906 6.534 0.698247 6.59054 0.632445C6.64708 0.566642 6.72504 0.522926 6.81067 0.509009L6.87923 0.503736H7.35806ZM9.27442 0.503736C9.36161 0.50267 9.44644 0.531978 9.51437 0.586632C9.58231 0.641286 9.6291 0.717879 9.64673 0.803267L9.652 0.868658V6.48803C9.6511 6.57466 9.61958 6.65818 9.56303 6.72381C9.50647 6.78943 9.42852 6.83294 9.34298 6.84663L9.27442 6.85295H8.79032C8.70312 6.85393 8.61831 6.82443 8.55054 6.76956C8.48276 6.71468 8.43626 6.63787 8.41907 6.55237L8.41274 6.48698V0.868658C8.41361 0.781906 8.44509 0.698247 8.50163 0.632445C8.55817 0.566642 8.63613 0.522926 8.72177 0.509009L8.79032 0.503736H9.27442ZM5.40161 1.76936C5.49957 1.76713 5.59525 1.79906 5.67223 1.85969C5.74921 1.92031 5.80269 2.00584 5.82349 2.10159L5.82981 2.17436V5.17917C5.82832 5.27694 5.79204 5.37098 5.72748 5.44443C5.66293 5.51787 5.57432 5.56592 5.47755 5.57995L5.40161 5.58628H5.00716C4.91028 5.58703 4.81609 5.55442 4.74041 5.49392C4.66474 5.43342 4.6122 5.34872 4.59161 5.25405L4.58423 5.18128V2.17014C4.58585 2.07358 4.62156 1.98069 4.68507 1.90793C4.74857 1.83516 4.83576 1.7872 4.93122 1.77253L5.00716 1.76514L5.40161 1.76936ZM11.1349 1.76936C11.2315 1.7685 11.3254 1.80081 11.4011 1.86089C11.4767 1.92098 11.5294 2.0052 11.5504 2.09948L11.5578 2.17225V5.17917C11.5567 5.27622 11.5213 5.36975 11.4577 5.44312C11.3942 5.5165 11.3067 5.56498 11.2108 5.57995L11.1349 5.58628H10.7404C10.6434 5.58728 10.5489 5.55478 10.473 5.49426C10.3972 5.43374 10.3445 5.3489 10.3238 5.25405L10.3175 5.18128V2.17014C10.319 2.07419 10.3541 1.98181 10.4167 1.90913C10.4794 1.83645 10.5656 1.7881 10.6603 1.77253L10.7362 1.76514L11.1349 1.76936ZM3.54114 0.503736C3.6204 0.497693 3.69945 0.517848 3.76615 0.561102C3.83284 0.604356 3.88348 0.668316 3.91028 0.74315L3.91661 0.795884V5.29202C3.91661 5.4344 3.78267 5.55358 3.60653 5.57889H3.53903H3.05388C2.9743 5.58523 2.89485 5.56523 2.82776 5.52197C2.76068 5.47871 2.70968 5.41458 2.68263 5.33948L2.6763 5.28674V0.795884C2.6763 0.652447 2.81024 0.533267 2.98638 0.507955H3.05388L3.54114 0.503736ZM13.047 1.47194C13.1018 1.4711 13.1562 1.48109 13.207 1.50134C13.2579 1.52158 13.3043 1.55168 13.3435 1.58991C13.3827 1.62813 13.4139 1.67372 13.4355 1.72407C13.457 1.77441 13.4684 1.82852 13.4689 1.88327V2.6342C13.4684 2.68896 13.457 2.74306 13.4355 2.7934C13.4139 2.84375 13.3827 2.88934 13.3435 2.92757C13.3043 2.96579 13.2579 2.99589 13.207 3.01613C13.1562 3.03638 13.1018 3.04637 13.047 3.04553H12.6473C12.5372 3.04557 12.4315 3.00257 12.3527 2.92572C12.2739 2.84887 12.2282 2.74425 12.2254 2.6342V1.88854C12.2282 1.77849 12.2739 1.67388 12.3527 1.59702C12.4315 1.52017 12.5372 1.47718 12.6473 1.47721L13.047 1.47194ZM1.58681 1.47194C1.69689 1.4719 1.80263 1.5149 1.88145 1.59175C1.96027 1.6686 2.00593 1.77322 2.00868 1.88327V2.6342C2.00593 2.74425 1.96027 2.84887 1.88145 2.92572C1.80263 3.00257 1.69689 3.04557 1.58681 3.04553H1.18286C1.07278 3.04557 0.967039 3.00257 0.888218 2.92572C0.809398 2.84887 0.763738 2.74425 0.760986 2.6342V1.88854C0.763738 1.77849 0.809398 1.67388 0.888218 1.59702C0.967039 1.52017 1.07278 1.47718 1.18286 1.47721L1.58681 1.47194Z" fill="white"/>
</svg>
